<mxfile host="65bd71144e">
    <diagram id="9oO27CrcnDWQ5aPeE0jl" name="Page-1">
        <mxGraphModel dx="2809" dy="1760" grid="1" gridSize="10" guides="1" tooltips="1" connect="1" arrows="1" fold="1" page="1" pageScale="1" pageWidth="850" pageHeight="1100" math="0" shadow="0">
            <root>
                <mxCell id="0"/>
                <mxCell id="1" parent="0"/>
                <UserObject label="" mermaidData="{&#xa;  &quot;data&quot;: &quot;flowchart TD\n    subgraph Camara\n        A[Inicio] --&gt; B[Inicializar IPCamera]\n        B --&gt; C{¿URL válida?}\n        C -- No --&gt; D[Error: URL inválida]\n        C -- Sí --&gt; E[Conectar a cámara]\n        E --&gt; F{¿Conexión exitosa?}\n        F -- No --&gt; G[Error: No se puede conectar]\n        F -- Sí --&gt; H[Obtener frame]\n        H --&gt; I{¿Frame válido?}\n        I -- No --&gt; J[Reintentar conexión]\n        I -- Sí --&gt; K[Retornar frame]\n        K --&gt; L[Fin]\n    end\n\n    subgraph Clasificacion\n        A1[Inicio] --&gt; B1[Cargar modelo MobileNetV2]\n        B1 --&gt; C1[Recibir frame]\n        C1 --&gt; D1{¿Frame válido?}\n        D1 -- No --&gt; E1[Error: Frame inválido]\n        D1 -- Sí --&gt; F1[Preprocesar imagen]\n        F1 --&gt; G1[Predecir con modelo]\n        G1 --&gt; H1[Decodificar predicciones]\n        H1 --&gt; I1[Retornar etiquetas/confianza]\n        I1 --&gt; J1[Fin]\n    end\n\n    subgraph Motores\n        A2[Inicio] --&gt; B2[Conectar a motores EV3]\n        B2 --&gt; C2{¿Conexión exitosa?}\n        C2 -- No --&gt; D2[Error: No se pueden inicializar motores]\n        C2 -- Sí --&gt; E2[Recibir comando de movimiento]\n        E2 --&gt; F2[Mover motores]\n        F2 --&gt; G2[Esperar duración]\n        G2 --&gt; H2[Detener motores]\n        H2 --&gt; I2[Fin]\n    end\n\n    subgraph SistemaCompleto\n        A3[Inicio] --&gt; B3[Inicializar cámara]\n        B3 --&gt; C3[Inicializar motores EV3]\n        C3 --&gt; D3{¿Motores listos?}\n        D3 -- No --&gt; E3[Error y terminar]\n        D3 -- Sí --&gt; F3[Loop principal]\n        F3 --&gt; G3[Capturar frame]\n        G3 --&gt; H3{¿Frame válido?}\n        H3 -- No --&gt; F3\n        H3 -- Sí --&gt; I3[Clasificar imagen]\n        I3 --&gt; J3{¿Objeto objetivo detectado?}\n        J3 -- No --&gt; F3\n        J3 -- Sí --&gt; K3[Activar motores]\n        K3 --&gt; F3\n    end\n\n&quot;&#xa;}" id="2">
                    <mxCell style="shape=image;noLabel=1;verticalAlign=top;imageAspect=1;image=data:image/svg+xml,PHN2ZyBhcmlhLXJvbGVkZXNjcmlwdGlvbj0iZmxvd2NoYXJ0LXYyIiByb2xlPSJncmFwaGljcy1kb2N1bWVudCBkb2N1bWVudCIgdmlld0JveD0iMCAwIDI3NDEuNjU4MjAzMTI1IDE4MTMuNjU2MjUiIHN0eWxlPSJtYXgtd2lkdGg6IDI3NDEuNjU4MjAzMTI1cHg7IiBjbGFzcz0iZmxvd2NoYXJ0IiB4bWxucz0iaHR0cDovL3d3dy53My5vcmcvMjAwMC9zdmciIHdpZHRoPSIxMDAlIiBpZD0iZ2VNZXJtYWlkT3V0cHV0LTE3NTU1NzM1Nzc3NjMiPjxzdHlsZT4jZ2VNZXJtYWlkT3V0cHV0LTE3NTU1NzM1Nzc3NjN7Zm9udC1mYW1pbHk6InRyZWJ1Y2hldCBtcyIsdmVyZGFuYSxhcmlhbCxzYW5zLXNlcmlmO2ZvbnQtc2l6ZToxNnB4O2ZpbGw6IzAwMDAwMDt9I2dlTWVybWFpZE91dHB1dC0xNzU1NTczNTc3NzYzIC5lcnJvci1pY29ue2ZpbGw6IzU1MjIyMjt9I2dlTWVybWFpZE91dHB1dC0xNzU1NTczNTc3NzYzIC5lcnJvci10ZXh0e2ZpbGw6IzU1MjIyMjtzdHJva2U6IzU1MjIyMjt9I2dlTWVybWFpZE91dHB1dC0xNzU1NTczNTc3NzYzIC5lZGdlLXRoaWNrbmVzcy1ub3JtYWx7c3Ryb2tlLXdpZHRoOjFweDt9I2dlTWVybWFpZE91dHB1dC0xNzU1NTczNTc3NzYzIC5lZGdlLXRoaWNrbmVzcy10aGlja3tzdHJva2Utd2lkdGg6My41cHg7fSNnZU1lcm1haWRPdXRwdXQtMTc1NTU3MzU3Nzc2MyAuZWRnZS1wYXR0ZXJuLXNvbGlke3N0cm9rZS1kYXNoYXJyYXk6MDt9I2dlTWVybWFpZE91dHB1dC0xNzU1NTczNTc3NzYzIC5lZGdlLXRoaWNrbmVzcy1pbnZpc2libGV7c3Ryb2tlLXdpZHRoOjA7ZmlsbDpub25lO30jZ2VNZXJtYWlkT3V0cHV0LTE3NTU1NzM1Nzc3NjMgLmVkZ2UtcGF0dGVybi1kYXNoZWR7c3Ryb2tlLWRhc2hhcnJheTozO30jZ2VNZXJtYWlkT3V0cHV0LTE3NTU1NzM1Nzc3NjMgLmVkZ2UtcGF0dGVybi1kb3R0ZWR7c3Ryb2tlLWRhc2hhcnJheToyO30jZ2VNZXJtYWlkT3V0cHV0LTE3NTU1NzM1Nzc3NjMgLm1hcmtlcntmaWxsOiM2NjY7c3Ryb2tlOiM2NjY7fSNnZU1lcm1haWRPdXRwdXQtMTc1NTU3MzU3Nzc2MyAubWFya2VyLmNyb3Nze3N0cm9rZTojNjY2O30jZ2VNZXJtYWlkT3V0cHV0LTE3NTU1NzM1Nzc3NjMgc3Zne2ZvbnQtZmFtaWx5OiJ0cmVidWNoZXQgbXMiLHZlcmRhbmEsYXJpYWwsc2Fucy1zZXJpZjtmb250LXNpemU6MTZweDt9I2dlTWVybWFpZE91dHB1dC0xNzU1NTczNTc3NzYzIHB7bWFyZ2luOjA7fSNnZU1lcm1haWRPdXRwdXQtMTc1NTU3MzU3Nzc2MyAubGFiZWx7Zm9udC1mYW1pbHk6InRyZWJ1Y2hldCBtcyIsdmVyZGFuYSxhcmlhbCxzYW5zLXNlcmlmO2NvbG9yOiMwMDAwMDA7fSNnZU1lcm1haWRPdXRwdXQtMTc1NTU3MzU3Nzc2MyAuY2x1c3Rlci1sYWJlbCB0ZXh0e2ZpbGw6IzMzMzt9I2dlTWVybWFpZE91dHB1dC0xNzU1NTczNTc3NzYzIC5jbHVzdGVyLWxhYmVsIHNwYW57Y29sb3I6IzMzMzt9I2dlTWVybWFpZE91dHB1dC0xNzU1NTczNTc3NzYzIC5jbHVzdGVyLWxhYmVsIHNwYW4gcHtiYWNrZ3JvdW5kLWNvbG9yOnRyYW5zcGFyZW50O30jZ2VNZXJtYWlkT3V0cHV0LTE3NTU1NzM1Nzc3NjMgLmxhYmVsIHRleHQsI2dlTWVybWFpZE91dHB1dC0xNzU1NTczNTc3NzYzIHNwYW57ZmlsbDojMDAwMDAwO2NvbG9yOiMwMDAwMDA7fSNnZU1lcm1haWRPdXRwdXQtMTc1NTU3MzU3Nzc2MyAubm9kZSByZWN0LCNnZU1lcm1haWRPdXRwdXQtMTc1NTU3MzU3Nzc2MyAubm9kZSBjaXJjbGUsI2dlTWVybWFpZE91dHB1dC0xNzU1NTczNTc3NzYzIC5ub2RlIGVsbGlwc2UsI2dlTWVybWFpZE91dHB1dC0xNzU1NTczNTc3NzYzIC5ub2RlIHBvbHlnb24sI2dlTWVybWFpZE91dHB1dC0xNzU1NTczNTc3NzYzIC5ub2RlIHBhdGh7ZmlsbDojZWVlO3N0cm9rZTojOTk5O3N0cm9rZS13aWR0aDoxcHg7fSNnZU1lcm1haWRPdXRwdXQtMTc1NTU3MzU3Nzc2MyAucm91Z2gtbm9kZSAubGFiZWwgdGV4dCwjZ2VNZXJtYWlkT3V0cHV0LTE3NTU1NzM1Nzc3NjMgLm5vZGUgLmxhYmVsIHRleHQsI2dlTWVybWFpZE91dHB1dC0xNzU1NTczNTc3NzYzIC5pbWFnZS1zaGFwZSAubGFiZWwsI2dlTWVybWFpZE91dHB1dC0xNzU1NTczNTc3NzYzIC5pY29uLXNoYXBlIC5sYWJlbHt0ZXh0LWFuY2hvcjptaWRkbGU7fSNnZU1lcm1haWRPdXRwdXQtMTc1NTU3MzU3Nzc2MyAubm9kZSAua2F0ZXggcGF0aHtmaWxsOiMwMDA7c3Ryb2tlOiMwMDA7c3Ryb2tlLXdpZHRoOjFweDt9I2dlTWVybWFpZE91dHB1dC0xNzU1NTczNTc3NzYzIC5yb3VnaC1ub2RlIC5sYWJlbCwjZ2VNZXJtYWlkT3V0cHV0LTE3NTU1NzM1Nzc3NjMgLm5vZGUgLmxhYmVsLCNnZU1lcm1haWRPdXRwdXQtMTc1NTU3MzU3Nzc2MyAuaW1hZ2Utc2hhcGUgLmxhYmVsLCNnZU1lcm1haWRPdXRwdXQtMTc1NTU3MzU3Nzc2MyAuaWNvbi1zaGFwZSAubGFiZWx7dGV4dC1hbGlnbjpjZW50ZXI7fSNnZU1lcm1haWRPdXRwdXQtMTc1NTU3MzU3Nzc2MyAubm9kZS5jbGlja2FibGV7Y3Vyc29yOnBvaW50ZXI7fSNnZU1lcm1haWRPdXRwdXQtMTc1NTU3MzU3Nzc2MyAucm9vdCAuYW5jaG9yIHBhdGh7ZmlsbDojNjY2IWltcG9ydGFudDtzdHJva2Utd2lkdGg6MDtzdHJva2U6IzY2Njt9I2dlTWVybWFpZE91dHB1dC0xNzU1NTczNTc3NzYzIC5hcnJvd2hlYWRQYXRoe2ZpbGw6IzMzMzMzMzt9I2dlTWVybWFpZE91dHB1dC0xNzU1NTczNTc3NzYzIC5lZGdlUGF0aCAucGF0aHtzdHJva2U6IzY2NjtzdHJva2Utd2lkdGg6Mi4wcHg7fSNnZU1lcm1haWRPdXRwdXQtMTc1NTU3MzU3Nzc2MyAuZmxvd2NoYXJ0LWxpbmt7c3Ryb2tlOiM2NjY7ZmlsbDpub25lO30jZ2VNZXJtYWlkT3V0cHV0LTE3NTU1NzM1Nzc3NjMgLmVkZ2VMYWJlbHtiYWNrZ3JvdW5kLWNvbG9yOndoaXRlO3RleHQtYWxpZ246Y2VudGVyO30jZ2VNZXJtYWlkT3V0cHV0LTE3NTU1NzM1Nzc3NjMgLmVkZ2VMYWJlbCBwe2JhY2tncm91bmQtY29sb3I6d2hpdGU7fSNnZU1lcm1haWRPdXRwdXQtMTc1NTU3MzU3Nzc2MyAuZWRnZUxhYmVsIHJlY3R7b3BhY2l0eTowLjU7YmFja2dyb3VuZC1jb2xvcjp3aGl0ZTtmaWxsOndoaXRlO30jZ2VNZXJtYWlkT3V0cHV0LTE3NTU1NzM1Nzc3NjMgLmxhYmVsQmtne2JhY2tncm91bmQtY29sb3I6cmdiYSgyNTUsIDI1NSwgMjU1LCAwLjUpO30jZ2VNZXJtYWlkT3V0cHV0LTE3NTU1NzM1Nzc3NjMgLmNsdXN0ZXIgcmVjdHtmaWxsOmhzbCgwLCAwJSwgOTguOTIxNTY4NjI3NSUpO3N0cm9rZTojNzA3MDcwO3N0cm9rZS13aWR0aDoxcHg7fSNnZU1lcm1haWRPdXRwdXQtMTc1NTU3MzU3Nzc2MyAuY2x1c3RlciB0ZXh0e2ZpbGw6IzMzMzt9I2dlTWVybWFpZE91dHB1dC0xNzU1NTczNTc3NzYzIC5jbHVzdGVyIHNwYW57Y29sb3I6IzMzMzt9I2dlTWVybWFpZE91dHB1dC0xNzU1NTczNTc3NzYzIGRpdi5tZXJtYWlkVG9vbHRpcHtwb3NpdGlvbjphYnNvbHV0ZTt0ZXh0LWFsaWduOmNlbnRlcjttYXgtd2lkdGg6MjAwcHg7cGFkZGluZzoycHg7Zm9udC1mYW1pbHk6InRyZWJ1Y2hldCBtcyIsdmVyZGFuYSxhcmlhbCxzYW5zLXNlcmlmO2ZvbnQtc2l6ZToxMnB4O2JhY2tncm91bmQ6aHNsKC0xNjAsIDAlLCA5My4zMzMzMzMzMzMzJSk7Ym9yZGVyOjFweCBzb2xpZCAjNzA3MDcwO2JvcmRlci1yYWRpdXM6MnB4O3BvaW50ZXItZXZlbnRzOm5vbmU7ei1pbmRleDoxMDA7fSNnZU1lcm1haWRPdXRwdXQtMTc1NTU3MzU3Nzc2MyAuZmxvd2NoYXJ0VGl0bGVUZXh0e3RleHQtYW5jaG9yOm1pZGRsZTtmb250LXNpemU6MThweDtmaWxsOiMwMDAwMDA7fSNnZU1lcm1haWRPdXRwdXQtMTc1NTU3MzU3Nzc2MyByZWN0LnRleHR7ZmlsbDpub25lO3N0cm9rZS13aWR0aDowO30jZ2VNZXJtYWlkT3V0cHV0LTE3NTU1NzM1Nzc3NjMgLmljb24tc2hhcGUsI2dlTWVybWFpZE91dHB1dC0xNzU1NTczNTc3NzYzIC5pbWFnZS1zaGFwZXtiYWNrZ3JvdW5kLWNvbG9yOndoaXRlO3RleHQtYWxpZ246Y2VudGVyO30jZ2VNZXJtYWlkT3V0cHV0LTE3NTU1NzM1Nzc3NjMgLmljb24tc2hhcGUgcCwjZ2VNZXJtYWlkT3V0cHV0LTE3NTU1NzM1Nzc3NjMgLmltYWdlLXNoYXBlIHB7YmFja2dyb3VuZC1jb2xvcjp3aGl0ZTtwYWRkaW5nOjJweDt9I2dlTWVybWFpZE91dHB1dC0xNzU1NTczNTc3NzYzIC5pY29uLXNoYXBlIHJlY3QsI2dlTWVybWFpZE91dHB1dC0xNzU1NTczNTc3NzYzIC5pbWFnZS1zaGFwZSByZWN0e29wYWNpdHk6MC41O2JhY2tncm91bmQtY29sb3I6d2hpdGU7ZmlsbDp3aGl0ZTt9I2dlTWVybWFpZE91dHB1dC0xNzU1NTczNTc3NzYzIDpyb290ey0tbWVybWFpZC1mb250LWZhbWlseToidHJlYnVjaGV0IG1zIix2ZXJkYW5hLGFyaWFsLHNhbnMtc2VyaWY7fTwvc3R5bGU+PGc+PG1hcmtlciBvcmllbnQ9ImF1dG8iIG1hcmtlckhlaWdodD0iOCIgbWFya2VyV2lkdGg9IjgiIG1hcmtlclVuaXRzPSJ1c2VyU3BhY2VPblVzZSIgcmVmWT0iNSIgcmVmWD0iNSIgdmlld0JveD0iMCAwIDEwIDEwIiBjbGFzcz0ibWFya2VyIGZsb3djaGFydC12MiIgaWQ9ImdlTWVybWFpZE91dHB1dC0xNzU1NTczNTc3NzYzX2Zsb3djaGFydC12Mi1wb2ludEVuZCI+PHBhdGggc3R5bGU9InN0cm9rZS13aWR0aDogMTsgc3Ryb2tlLWRhc2hhcnJheTogMSwgMDsiIGNsYXNzPSJhcnJvd01hcmtlclBhdGgiIGQ9Ik0gMCAwIEwgMTAgNSBMIDAgMTAgeiI+PC9wYXRoPjwvbWFya2VyPjxtYXJrZXIgb3JpZW50PSJhdXRvIiBtYXJrZXJIZWlnaHQ9IjgiIG1hcmtlcldpZHRoPSI4IiBtYXJrZXJVbml0cz0idXNlclNwYWNlT25Vc2UiIHJlZlk9IjUiIHJlZlg9IjQuNSIgdmlld0JveD0iMCAwIDEwIDEwIiBjbGFzcz0ibWFya2VyIGZsb3djaGFydC12MiIgaWQ9ImdlTWVybWFpZE91dHB1dC0xNzU1NTczNTc3NzYzX2Zsb3djaGFydC12Mi1wb2ludFN0YXJ0Ij48cGF0aCBzdHlsZT0ic3Ryb2tlLXdpZHRoOiAxOyBzdHJva2UtZGFzaGFycmF5OiAxLCAwOyIgY2xhc3M9ImFycm93TWFya2VyUGF0aCIgZD0iTSAwIDUgTCAxMCAxMCBMIDEwIDAgeiI+PC9wYXRoPjwvbWFya2VyPjxtYXJrZXIgb3JpZW50PSJhdXRvIiBtYXJrZXJIZWlnaHQ9IjExIiBtYXJrZXJXaWR0aD0iMTEiIG1hcmtlclVuaXRzPSJ1c2VyU3BhY2VPblVzZSIgcmVmWT0iNSIgcmVmWD0iMTEiIHZpZXdCb3g9IjAgMCAxMCAxMCIgY2xhc3M9Im1hcmtlciBmbG93Y2hhcnQtdjIiIGlkPSJnZU1lcm1haWRPdXRwdXQtMTc1NTU3MzU3Nzc2M19mbG93Y2hhcnQtdjItY2lyY2xlRW5kIj48Y2lyY2xlIHN0eWxlPSJzdHJva2Utd2lkdGg6IDE7IHN0cm9rZS1kYXNoYXJyYXk6IDEsIDA7IiBjbGFzcz0iYXJyb3dNYXJrZXJQYXRoIiByPSI1IiBjeT0iNSIgY3g9IjUiPjwvY2lyY2xlPjwvbWFya2VyPjxtYXJrZXIgb3JpZW50PSJhdXRvIiBtYXJrZXJIZWlnaHQ9IjExIiBtYXJrZXJXaWR0aD0iMTEiIG1hcmtlclVuaXRzPSJ1c2VyU3BhY2VPblVzZSIgcmVmWT0iNSIgcmVmWD0iLTEiIHZpZXdCb3g9IjAgMCAxMCAxMCIgY2xhc3M9Im1hcmtlciBmbG93Y2hhcnQtdjIiIGlkPSJnZU1lcm1haWRPdXRwdXQtMTc1NTU3MzU3Nzc2M19mbG93Y2hhcnQtdjItY2lyY2xlU3RhcnQiPjxjaXJjbGUgc3R5bGU9InN0cm9rZS13aWR0aDogMTsgc3Ryb2tlLWRhc2hhcnJheTogMSwgMDsiIGNsYXNzPSJhcnJvd01hcmtlclBhdGgiIHI9IjUiIGN5PSI1IiBjeD0iNSI+PC9jaXJjbGU+PC9tYXJrZXI+PG1hcmtlciBvcmllbnQ9ImF1dG8iIG1hcmtlckhlaWdodD0iMTEiIG1hcmtlcldpZHRoPSIxMSIgbWFya2VyVW5pdHM9InVzZXJTcGFjZU9uVXNlIiByZWZZPSI1LjIiIHJlZlg9IjEyIiB2aWV3Qm94PSIwIDAgMTEgMTEiIGNsYXNzPSJtYXJrZXIgY3Jvc3MgZmxvd2NoYXJ0LXYyIiBpZD0iZ2VNZXJtYWlkT3V0cHV0LTE3NTU1NzM1Nzc3NjNfZmxvd2NoYXJ0LXYyLWNyb3NzRW5kIj48cGF0aCBzdHlsZT0ic3Ryb2tlLXdpZHRoOiAyOyBzdHJva2UtZGFzaGFycmF5OiAxLCAwOyIgY2xhc3M9ImFycm93TWFya2VyUGF0aCIgZD0iTSAxLDEgbCA5LDkgTSAxMCwxIGwgLTksOSI+PC9wYXRoPjwvbWFya2VyPjxtYXJrZXIgb3JpZW50PSJhdXRvIiBtYXJrZXJIZWlnaHQ9IjExIiBtYXJrZXJXaWR0aD0iMTEiIG1hcmtlclVuaXRzPSJ1c2VyU3BhY2VPblVzZSIgcmVmWT0iNS4yIiByZWZYPSItMSIgdmlld0JveD0iMCAwIDExIDExIiBjbGFzcz0ibWFya2VyIGNyb3NzIGZsb3djaGFydC12MiIgaWQ9ImdlTWVybWFpZE91dHB1dC0xNzU1NTczNTc3NzYzX2Zsb3djaGFydC12Mi1jcm9zc1N0YXJ0Ij48cGF0aCBzdHlsZT0ic3Ryb2tlLXdpZHRoOiAyOyBzdHJva2UtZGFzaGFycmF5OiAxLCAwOyIgY2xhc3M9ImFycm93TWFya2VyUGF0aCIgZD0iTSAxLDEgbCA5LDkgTSAxMCwxIGwgLTksOSI+PC9wYXRoPjwvbWFya2VyPjxnIGNsYXNzPSJyb290Ij48ZyBjbGFzcz0iY2x1c3RlcnMiPjwvZz48ZyBjbGFzcz0iZWRnZVBhdGhzIj48L2c+PGcgY2xhc3M9ImVkZ2VMYWJlbHMiPjwvZz48ZyBjbGFzcz0ibm9kZXMiPjxnIHRyYW5zZm9ybT0idHJhbnNsYXRlKDAsIDApIiBjbGFzcz0icm9vdCI+PGcgY2xhc3M9ImNsdXN0ZXJzIj48ZyBkYXRhLWxvb2s9ImNsYXNzaWMiIGlkPSJTaXN0ZW1hQ29tcGxldG8iIGNsYXNzPSJjbHVzdGVyIj48cmVjdCBoZWlnaHQ9IjE3OTcuNjU2MjUiIHdpZHRoPSI1NzguMjA4OTg0Mzc1IiB5PSI4IiB4PSI4IiBzdHlsZT0iIj48L3JlY3Q+PGcgdHJhbnNmb3JtPSJ0cmFuc2xhdGUoMjM0Ljc4ODA4NTkzNzUsIDgpIiBjbGFzcz0iY2x1c3Rlci1sYWJlbCI+PGc+PHJlY3Qgc3R5bGU9InN0cm9rZTogbm9uZSIgY2xhc3M9ImJhY2tncm91bmQiPjwvcmVjdD48dGV4dCBzdHlsZT0iIiB5PSItMTAuMSI+PHRzcGFuIGR5PSIxLjFlbSIgeT0iLTAuMWVtIiB4PSIwIiBjbGFzcz0idGV4dC1vdXRlci10c3BhbiI+PHRzcGFuIGZvbnQtd2VpZ2h0PSJub3JtYWwiIGNsYXNzPSJ0ZXh0LWlubmVyLXRzcGFuIiBmb250LXN0eWxlPSJub3JtYWwiPlNpc3RlbWFDb21wbGV0bzwvdHNwYW4+PC90c3Bhbj48L3RleHQ+PC9nPjwvZz48L2c+PC9nPjxnIGNsYXNzPSJlZGdlUGF0aHMiPjxwYXRoIG1hcmtlci1lbmQ9InVybCgjZ2VNZXJtYWlkT3V0cHV0LTE3NTU1NzM1Nzc3NjNfZmxvd2NoYXJ0LXYyLXBvaW50RW5kKSIgc3R5bGU9IiIgY2xhc3M9ImVkZ2UtdGhpY2tuZXNzLW5vcm1hbCBlZGdlLXBhdHRlcm4tc29saWQgZWRnZS10aGlja25lc3Mtbm9ybWFsIGVkZ2UtcGF0dGVybi1zb2xpZCBmbG93Y2hhcnQtbGluayIgaWQ9IkxfQTNfQjNfMjgiIGQ9Ik0yNzAuODIyLDk5LjVMMjcwLjgyMiwxMDUuNzVDMjcwLjgyMiwxMTIsMjcwLjgyMiwxMjQuNSwyNzAuODIyLDEzNi4zMzNDMjcwLjgyMiwxNDguMTY3LDI3MC44MjIsMTU5LjMzMywyNzAuODIyLDE2NC45MTdMMjcwLjgyMiwxNzAuNSI+PC9wYXRoPjxwYXRoIG1hcmtlci1lbmQ9InVybCgjZ2VNZXJtYWlkT3V0cHV0LTE3NTU1NzM1Nzc3NjNfZmxvd2NoYXJ0LXYyLXBvaW50RW5kKSIgc3R5bGU9IiIgY2xhc3M9ImVkZ2UtdGhpY2tuZXNzLW5vcm1hbCBlZGdlLXBhdHRlcm4tc29saWQgZWRnZS10aGlja25lc3Mtbm9ybWFsIGVkZ2UtcGF0dGVybi1zb2xpZCBmbG93Y2hhcnQtbGluayIgaWQ9IkxfQjNfQzNfMjkiIGQ9Ik0yNzAuODIyLDIyOC41TDI3MC44MjIsMjM0Ljc1QzI3MC44MjIsMjQxLDI3MC44MjIsMjUzLjUsMjcwLjgyMiwyNjUuMzMzQzI3MC44MjIsMjc3LjE2NywyNzAuODIyLDI4OC4zMzMsMjcwLjgyMiwyOTMuOTE3TDI3MC44MjIsMjk5LjUiPjwvcGF0aD48cGF0aCBtYXJrZXItZW5kPSJ1cmwoI2dlTWVybWFpZE91dHB1dC0xNzU1NTczNTc3NzYzX2Zsb3djaGFydC12Mi1wb2ludEVuZCkiIHN0eWxlPSIiIGNsYXNzPSJlZGdlLXRoaWNrbmVzcy1ub3JtYWwgZWRnZS1wYXR0ZXJuLXNvbGlkIGVkZ2UtdGhpY2tuZXNzLW5vcm1hbCBlZGdlLXBhdHRlcm4tc29saWQgZmxvd2NoYXJ0LWxpbmsiIGlkPSJMX0MzX0QzXzMwIiBkPSJNMjcwLjgyMiwzNTcuNUwyNzAuODIyLDM2My43NUMyNzAuODIyLDM3MCwyNzAuODIyLDM4Mi41LDI3MC44OTcsMzk0LjQxN0MyNzAuOTcxLDQwNi4zMzMsMjcxLjEyMSw0MTcuNjY3LDI3MS4xOTUsNDIzLjMzNEwyNzEuMjcsNDI5Ij48L3BhdGg+PHBhdGggbWFya2VyLWVuZD0idXJsKCNnZU1lcm1haWRPdXRwdXQtMTc1NTU3MzU3Nzc2M19mbG93Y2hhcnQtdjItcG9pbnRFbmQpIiBzdHlsZT0iIiBjbGFzcz0iZWRnZS10aGlja25lc3Mtbm9ybWFsIGVkZ2UtcGF0dGVybi1zb2xpZCBlZGdlLXRoaWNrbmVzcy1ub3JtYWwgZWRnZS1wYXR0ZXJuLXNvbGlkIGZsb3djaGFydC1saW5rIiBpZD0iTF9EM19FM18zMSIgZD0iTTIzMC44MjksNTU2LjUzOEwyMTYuMiw1NzEuMzdDMjAxLjU3MSw1ODYuMjAzLDE3Mi4zMTMsNjE1Ljg2NywxNTcuNjg0LDYzOC4xOTlDMTQzLjA1NSw2NjAuNTMxLDE0My4wNTUsNjc1LjUzMSwxNDMuMDU1LDY4My4wMzFMMTQzLjA1NSw2OTAuNTMxIj48L3BhdGg+PHBhdGggbWFya2VyLWVuZD0idXJsKCNnZU1lcm1haWRPdXRwdXQtMTc1NTU3MzU3Nzc2M19mbG93Y2hhcnQtdjItcG9pbnRFbmQpIiBzdHlsZT0iIiBjbGFzcz0iZWRnZS10aGlja25lc3Mtbm9ybWFsIGVkZ2UtcGF0dGVybi1zb2xpZCBlZGdlLXRoaWNrbmVzcy1ub3JtYWwgZWRnZS1wYXR0ZXJuLXNvbGlkIGZsb3djaGFydC1saW5rIiBpZD0iTF9EM19GM18zMiIgZD0iTTMxOS4yMDYsNTQ5LjE0OEwzNDEuNzc1LDU2NS4yMTJDMzY0LjM0NSw1ODEuMjc2LDQwOS40ODQsNjEzLjQwMyw0MzIuMDU0LDYzNi45NjdDNDU0LjYyMyw2NjAuNTMxLDQ1NC42MjMsNjc1LjUzMSw0NTQuNjIzLDY4My4wMzFMNDU0LjYyMyw2OTAuNTMxIj48L3BhdGg+PHBhdGggbWFya2VyLWVuZD0idXJsKCNnZU1lcm1haWRPdXRwdXQtMTc1NTU3MzU3Nzc2M19mbG93Y2hhcnQtdjItcG9pbnRFbmQpIiBzdHlsZT0iIiBjbGFzcz0iZWRnZS10aGlja25lc3Mtbm9ybWFsIGVkZ2UtcGF0dGVybi1zb2xpZCBlZGdlLXRoaWNrbmVzcy1ub3JtYWwgZWRnZS1wYXR0ZXJuLXNvbGlkIGZsb3djaGFydC1saW5rIiBpZD0iTF9GM19HM18zMyIgZD0iTTM3My42MzksNzQwLjkyMkwzNDIuMjQsNzQ4LjQ0QzMxMC44NCw3NTUuOTU4LDI0OC4wNDIsNzcwLjk5NSwyMTYuNjQzLDc4NC4wOTZDMTg1LjI0NCw3OTcuMTk4LDE4NS4yNDQsODA4LjM2NSwxODUuMjQ0LDgxMy45NDhMMTg1LjI0NCw4MTkuNTMxIj48L3BhdGg+PHBhdGggbWFya2VyLWVuZD0idXJsKCNnZU1lcm1haWRPdXRwdXQtMTc1NTU3MzU3Nzc2M19mbG93Y2hhcnQtdjItcG9pbnRFbmQpIiBzdHlsZT0iIiBjbGFzcz0iZWRnZS10aGlja25lc3Mtbm9ybWFsIGVkZ2UtcGF0dGVybi1zb2xpZCBlZGdlLXRoaWNrbmVzcy1ub3JtYWwgZWRnZS1wYXR0ZXJuLXNvbGlkIGZsb3djaGFydC1saW5rIiBpZD0iTF9HM19IM18zNCIgZD0iTTE4NS4yNDQsODc3LjUzMUwxODUuMjQ0LDg4My43ODFDMTg1LjI0NCw4OTAuMDMxLDE4NS4yNDQsOTAyLjUzMSwxOTEuMjA4LDkxOS4zQzE5Ny4xNzIsOTM2LjA2OSwyMDkuMTAxLDk1Ny4xMDYsMjE1LjA2NSw5NjcuNjI1TDIyMS4wMjksOTc4LjE0NCI+PC9wYXRoPjxwYXRoIG1hcmtlci1lbmQ9InVybCgjZ2VNZXJtYWlkT3V0cHV0LTE3NTU1NzM1Nzc3NjNfZmxvd2NoYXJ0LXYyLXBvaW50RW5kKSIgc3R5bGU9IiIgY2xhc3M9ImVkZ2UtdGhpY2tuZXNzLW5vcm1hbCBlZGdlLXBhdHRlcm4tc29saWQgZWRnZS10aGlja25lc3Mtbm9ybWFsIGVkZ2UtcGF0dGVybi1zb2xpZCBmbG93Y2hhcnQtbGluayIgaWQ9IkxfSDNfRjNfMzUiIGQ9Ik0yODAuMTg2LDk4MS42MjNMMjg2LjMxMiw5NzAuNTI1QzI5Mi40MzgsOTU5LjQyNiwzMDQuNjkxLDkzNy4yMjksMzEwLjgxNyw5MTUuMzhDMzE2Ljk0Myw4OTMuNTMxLDMxNi45NDMsODcyLjAzMSwzMTYuOTQzLDg1MC41MzFDMzE2Ljk0Myw4MjkuMDMxLDMxNi45NDMsODA3LjUzMSwzMjkuNjgxLDc5MC44MTRDMzQyLjQxOCw3NzQuMDk3LDM2Ny44OTMsNzYyLjE2MywzODAuNjMsNzU2LjE5NUwzOTMuMzY3LDc1MC4yMjgiPjwvcGF0aD48cGF0aCBtYXJrZXItZW5kPSJ1cmwoI2dlTWVybWFpZE91dHB1dC0xNzU1NTczNTc3NzYzX2Zsb3djaGFydC12Mi1wb2ludEVuZCkiIHN0eWxlPSIiIGNsYXNzPSJlZGdlLXRoaWNrbmVzcy1ub3JtYWwgZWRnZS1wYXR0ZXJuLXNvbGlkIGVkZ2UtdGhpY2tuZXNzLW5vcm1hbCBlZGdlLXBhdHRlcm4tc29saWQgZmxvd2NoYXJ0LWxpbmsiIGlkPSJMX0gzX0kzXzM2IiBkPSJNMjUxLjU5NCwxMTExLjY1NkwyNTEuNTEsMTExOS43NEMyNTEuNDI3LDExMjcuODIzLDI1MS4yNiwxMTQzLjk5LDI1MS4xNzcsMTE1OS41NzNDMjUxLjA5NCwxMTc1LjE1NiwyNTEuMDk0LDExOTAuMTU2LDI1MS4wOTQsMTE5Ny42NTZMMjUxLjA5NCwxMjA1LjE1NiI+PC9wYXRoPjxwYXRoIG1hcmtlci1lbmQ9InVybCgjZ2VNZXJtYWlkT3V0cHV0LTE3NTU1NzM1Nzc3NjNfZmxvd2NoYXJ0LXYyLXBvaW50RW5kKSIgc3R5bGU9IiIgY2xhc3M9ImVkZ2UtdGhpY2tuZXNzLW5vcm1hbCBlZGdlLXBhdHRlcm4tc29saWQgZWRnZS10aGlja25lc3Mtbm9ybWFsIGVkZ2UtcGF0dGVybi1zb2xpZCBmbG93Y2hhcnQtbGluayIgaWQ9IkxfSTNfSjNfMzciIGQ9Ik0yNTEuMDk0LDEyNjMuMTU2TDI1MS4wOTQsMTI2OS40MDZDMjUxLjA5NCwxMjc1LjY1NiwyNTEuMDk0LDEyODguMTU2LDI1NS4zODcsMTMwNi4yMzFDMjU5LjY4MSwxMzI0LjMwNSwyNjguMjY4LDEzNDcuOTUzLDI3Mi41NjIsMTM1OS43NzhMMjc2Ljg1NSwxMzcxLjYwMiI+PC9wYXRoPjxwYXRoIG1hcmtlci1lbmQ9InVybCgjZ2VNZXJtYWlkT3V0cHV0LTE3NTU1NzM1Nzc3NjNfZmxvd2NoYXJ0LXYyLXBvaW50RW5kKSIgc3R5bGU9IiIgY2xhc3M9ImVkZ2UtdGhpY2tuZXNzLW5vcm1hbCBlZGdlLXBhdHRlcm4tc29saWQgZWRnZS10aGlja25lc3Mtbm9ybWFsIGVkZ2UtcGF0dGVybi1zb2xpZCBmbG93Y2hhcnQtbGluayIgaWQ9IkxfSjNfRjNfMzgiIGQ9Ik0zNjQuNTYzLDEzODguMjk0TDM3Mi41NDcsMTM3My42ODdDMzgwLjUzLDEzNTkuMDgxLDM5Ni40OTgsMTMyOS44NjksNDA0LjQ4MSwxMzA0LjUxMkM0MTIuNDY1LDEyNzkuMTU2LDQxMi40NjUsMTI1Ny42NTYsNDEyLjQ2NSwxMjM0LjI0QzQxMi40NjUsMTIxMC44MjMsNDEyLjQ2NSwxMTg1LjQ5LDQxMi40NjUsMTE1MS40MzhDNDEyLjQ2NSwxMTE3LjM4NSw0MTIuNDY1LDEwNzQuNjE1LDQxMi40NjUsMTAzMy43NkM0MTIuNDY1LDk5Mi45MDYsNDEyLjQ2NSw5NTMuOTY5LDQxMi40NjUsOTIzLjc1QzQxMi40NjUsODkzLjUzMSw0MTIuNDY1LDg3Mi4wMzEsNDEyLjQ2NSw4NTAuNTMxQzQxMi40NjUsODI5LjAzMSw0MTIuNDY1LDgwNy41MzEsNDE2LjE4NSw3OTEuMDg5QzQxOS45MDYsNzc0LjY0Nyw0MjcuMzQ2LDc2My4yNjMsNDMxLjA2Nyw3NTcuNTcxTDQzNC43ODcsNzUxLjg3OSI+PC9wYXRoPjxwYXRoIG1hcmtlci1lbmQ9InVybCgjZ2VNZXJtYWlkT3V0cHV0LTE3NTU1NzM1Nzc3NjNfZmxvd2NoYXJ0LXYyLXBvaW50RW5kKSIgc3R5bGU9IiIgY2xhc3M9ImVkZ2UtdGhpY2tuZXNzLW5vcm1hbCBlZGdlLXBhdHRlcm4tc29saWQgZWRnZS10aGlja25lc3Mtbm9ybWFsIGVkZ2UtcGF0dGVybi1zb2xpZCBmbG93Y2hhcnQtbGluayIgaWQ9IkxfSjNfSzNfMzkiIGQ9Ik0zMTQuOTI2LDE2MTYuNjU2TDMxNC44NDIsMTYyNC43NEMzMTQuNzU5LDE2MzIuODIzLDMxNC41OTIsMTY0OC45OSwzMjguNjc0LDE2NjQuOTE3QzM0Mi43NTYsMTY4MC44NDQsMzcxLjA4NSwxNjk2LjUzMSwzODUuMjUsMTcwNC4zNzVMMzk5LjQxNSwxNzEyLjIxOSI+PC9wYXRoPjxwYXRoIG1hcmtlci1lbmQ9InVybCgjZ2VNZXJtYWlkT3V0cHV0LTE3NTU1NzM1Nzc3NjNfZmxvd2NoYXJ0LXYyLXBvaW50RW5kKSIgc3R5bGU9IiIgY2xhc3M9ImVkZ2UtdGhpY2tuZXNzLW5vcm1hbCBlZGdlLXBhdHRlcm4tc29saWQgZWRnZS10aGlja25lc3Mtbm9ybWFsIGVkZ2UtcGF0dGVybi1zb2xpZCBmbG93Y2hhcnQtbGluayIgaWQ9IkxfSzNfRjNfNDAiIGQ9Ik00NzQuMjY2LDE3MTQuMTU2TDQ4MS4xLDE3MDUuOTlDNDg3LjkzMywxNjk3LjgyMyw1MDEuNjAxLDE2ODEuNDksNTA4LjQzNCwxNjQxLjk5QzUxNS4yNjgsMTYwMi40OSw1MTUuMjY4LDE1MzkuODIzLDUxNS4yNjgsMTQ3OS4wNzNDNTE1LjI2OCwxNDE4LjMyMyw1MTUuMjY4LDEzNTkuNDksNTE1LjI2OCwxMzE5LjMyM0M1MTUuMjY4LDEyNzkuMTU2LDUxNS4yNjgsMTI1Ny42NTYsNTE1LjI2OCwxMjM0LjI0QzUxNS4yNjgsMTIxMC44MjMsNTE1LjI2OCwxMTg1LjQ5LDUxNS4yNjgsMTE1MS40MzhDNTE1LjI2OCwxMTE3LjM4NSw1MTUuMjY4LDEwNzQuNjE1LDUxNS4yNjgsMTAzMy43NkM1MTUuMjY4LDk5Mi45MDYsNTE1LjI2OCw5NTMuOTY5LDUxNS4yNjgsOTIzLjc1QzUxNS4yNjgsODkzLjUzMSw1MTUuMjY4LDg3Mi4wMzEsNTE1LjI2OCw4NTAuNTMxQzUxNS4yNjgsODI5LjAzMSw1MTUuMjY4LDgwNy41MzEsNTA5Ljg0OCw3OTEuMDE3QzUwNC40MjgsNzc0LjUwMyw0OTMuNTg5LDc2Mi45NzQsNDg4LjE2OSw3NTcuMjFMNDgyLjc0OSw3NTEuNDQ1Ij48L3BhdGg+PC9nPjxnIGNsYXNzPSJlZGdlTGFiZWxzIj48Zz48cmVjdCBzdHlsZT0ic3Ryb2tlOiBub25lIiBjbGFzcz0iYmFja2dyb3VuZCI+PC9yZWN0PjwvZz48Zz48cmVjdCBzdHlsZT0ic3Ryb2tlOiBub25lIiBjbGFzcz0iYmFja2dyb3VuZCI+PC9yZWN0PjwvZz48Zz48cmVjdCBzdHlsZT0ic3Ryb2tlOiBub25lIiBjbGFzcz0iYmFja2dyb3VuZCI+PC9yZWN0PjwvZz48Zz48cmVjdCBzdHlsZT0ic3Ryb2tlOiBub25lIiBjbGFzcz0iYmFja2dyb3VuZCI+PC9yZWN0PjwvZz48Zz48cmVjdCBzdHlsZT0ic3Ryb2tlOiBub25lIiBjbGFzcz0iYmFja2dyb3VuZCI+PC9yZWN0PjwvZz48Zz48cmVjdCBzdHlsZT0ic3Ryb2tlOiBub25lIiBjbGFzcz0iYmFja2dyb3VuZCI+PC9yZWN0PjwvZz48Zz48cmVjdCBzdHlsZT0ic3Ryb2tlOiBub25lIiBjbGFzcz0iYmFja2dyb3VuZCI+PC9yZWN0PjwvZz48ZyBjbGFzcz0iZWRnZUxhYmVsIj48ZyB0cmFuc2Zvcm09InRyYW5zbGF0ZSgwLCAwKSIgY2xhc3M9ImxhYmVsIj48dGV4dCB5PSItMTAuMSI+PHRzcGFuIGR5PSIxLjFlbSIgeT0iLTAuMWVtIiB4PSIwIiBjbGFzcz0idGV4dC1vdXRlci10c3BhbiI+PC90c3Bhbj48L3RleHQ+PC9nPjwvZz48ZyBjbGFzcz0iZWRnZUxhYmVsIj48ZyB0cmFuc2Zvcm09InRyYW5zbGF0ZSgwLCAwKSIgY2xhc3M9ImxhYmVsIj48dGV4dCB5PSItMTAuMSI+PHRzcGFuIGR5PSIxLjFlbSIgeT0iLTAuMWVtIiB4PSIwIiBjbGFzcz0idGV4dC1vdXRlci10c3BhbiI+PC90c3Bhbj48L3RleHQ+PC9nPjwvZz48ZyBjbGFzcz0iZWRnZUxhYmVsIj48ZyB0cmFuc2Zvcm09InRyYW5zbGF0ZSgwLCAwKSIgY2xhc3M9ImxhYmVsIj48dGV4dCB5PSItMTAuMSI+PHRzcGFuIGR5PSIxLjFlbSIgeT0iLTAuMWVtIiB4PSIwIiBjbGFzcz0idGV4dC1vdXRlci10c3BhbiI+PC90c3Bhbj48L3RleHQ+PC9nPjwvZz48ZyB0cmFuc2Zvcm09InRyYW5zbGF0ZSgxNDMuMDU0Njg3NSwgNjQ1LjUzMTI1KSIgY2xhc3M9ImVkZ2VMYWJlbCI+PGcgdHJhbnNmb3JtPSJ0cmFuc2xhdGUoLTExLjYwNTQ2ODc1LCAtMTEuNSkiIGNsYXNzPSJsYWJlbCI+PGc+PHJlY3QgaGVpZ2h0PSIyMyIgd2lkdGg9IjIzLjIxMDkzNzUiIHk9Ii0xIiB4PSItMiIgc3R5bGU9IiIgY2xhc3M9ImJhY2tncm91bmQiPjwvcmVjdD48dGV4dCBzdHlsZT0iIiB5PSItMTAuMSI+PHRzcGFuIGR5PSIxLjFlbSIgeT0iLTAuMWVtIiB4PSIwIiBjbGFzcz0idGV4dC1vdXRlci10c3BhbiI+PHRzcGFuIGZvbnQtd2VpZ2h0PSJub3JtYWwiIGNsYXNzPSJ0ZXh0LWlubmVyLXRzcGFuIiBmb250LXN0eWxlPSJub3JtYWwiPk5vPC90c3Bhbj48L3RzcGFuPjwvdGV4dD48L2c+PC9nPjwvZz48ZyB0cmFuc2Zvcm09InRyYW5zbGF0ZSg0NTQuNjIzMDQ2ODc1LCA2NDUuNTMxMjUpIiBjbGFzcz0iZWRnZUxhYmVsIj48ZyB0cmFuc2Zvcm09InRyYW5zbGF0ZSgtOC44NDc2NTYyNSwgLTExLjUpIiBjbGFzcz0ibGFiZWwiPjxnPjxyZWN0IGhlaWdodD0iMjMiIHdpZHRoPSIxNy42OTUzMTI1IiB5PSItMSIgeD0iLTIiIHN0eWxlPSIiIGNsYXNzPSJiYWNrZ3JvdW5kIj48L3JlY3Q+PHRleHQgc3R5bGU9IiIgeT0iLTEwLjEiPjx0c3BhbiBkeT0iMS4xZW0iIHk9Ii0wLjFlbSIgeD0iMCIgY2xhc3M9InRleHQtb3V0ZXItdHNwYW4iPjx0c3BhbiBmb250LXdlaWdodD0ibm9ybWFsIiBjbGFzcz0idGV4dC1pbm5lci10c3BhbiIgZm9udC1zdHlsZT0ibm9ybWFsIj5Tw608L3RzcGFuPjwvdHNwYW4+PC90ZXh0PjwvZz48L2c+PC9nPjxnIGNsYXNzPSJlZGdlTGFiZWwiPjxnIHRyYW5zZm9ybT0idHJhbnNsYXRlKDAsIDApIiBjbGFzcz0ibGFiZWwiPjx0ZXh0IHk9Ii0xMC4xIj48dHNwYW4gZHk9IjEuMWVtIiB5PSItMC4xZW0iIHg9IjAiIGNsYXNzPSJ0ZXh0LW91dGVyLXRzcGFuIj48L3RzcGFuPjwvdGV4dD48L2c+PC9nPjxnIGNsYXNzPSJlZGdlTGFiZWwiPjxnIHRyYW5zZm9ybT0idHJhbnNsYXRlKDAsIDApIiBjbGFzcz0ibGFiZWwiPjx0ZXh0IHk9Ii0xMC4xIj48dHNwYW4gZHk9IjEuMWVtIiB5PSItMC4xZW0iIHg9IjAiIGNsYXNzPSJ0ZXh0LW91dGVyLXRzcGFuIj48L3RzcGFuPjwvdGV4dD48L2c+PC9nPjxnIHRyYW5zZm9ybT0idHJhbnNsYXRlKDMxNi45NDMzNTkzNzUsIDg1MC41MzEyNSkiIGNsYXNzPSJlZGdlTGFiZWwiPjxnIHRyYW5zZm9ybT0idHJhbnNsYXRlKC0xMS42MDU0Njg3NSwgLTExLjUpIiBjbGFzcz0ibGFiZWwiPjxnPjxyZWN0IGhlaWdodD0iMjMiIHdpZHRoPSIyMy4yMTA5Mzc1IiB5PSItMSIgeD0iLTIiIHN0eWxlPSIiIGNsYXNzPSJiYWNrZ3JvdW5kIj48L3JlY3Q+PHRleHQgc3R5bGU9IiIgeT0iLTEwLjEiPjx0c3BhbiBkeT0iMS4xZW0iIHk9Ii0wLjFlbSIgeD0iMCIgY2xhc3M9InRleHQtb3V0ZXItdHNwYW4iPjx0c3BhbiBmb250LXdlaWdodD0ibm9ybWFsIiBjbGFzcz0idGV4dC1pbm5lci10c3BhbiIgZm9udC1zdHlsZT0ibm9ybWFsIj5ObzwvdHNwYW4+PC90c3Bhbj48L3RleHQ+PC9nPjwvZz48L2c+PGcgdHJhbnNmb3JtPSJ0cmFuc2xhdGUoMjUxLjA5Mzc1LCAxMTYwLjE1NjI1KSIgY2xhc3M9ImVkZ2VMYWJlbCI+PGcgdHJhbnNmb3JtPSJ0cmFuc2xhdGUoLTguODQ3NjU2MjUsIC0xMS41KSIgY2xhc3M9ImxhYmVsIj48Zz48cmVjdCBoZWlnaHQ9IjIzIiB3aWR0aD0iMTcuNjk1MzEyNSIgeT0iLTEiIHg9Ii0yIiBzdHlsZT0iIiBjbGFzcz0iYmFja2dyb3VuZCI+PC9yZWN0Pjx0ZXh0IHN0eWxlPSIiIHk9Ii0xMC4xIj48dHNwYW4gZHk9IjEuMWVtIiB5PSItMC4xZW0iIHg9IjAiIGNsYXNzPSJ0ZXh0LW91dGVyLXRzcGFuIj48dHNwYW4gZm9udC13ZWlnaHQ9Im5vcm1hbCIgY2xhc3M9InRleHQtaW5uZXItdHNwYW4iIGZvbnQtc3R5bGU9Im5vcm1hbCI+U8OtPC90c3Bhbj48L3RzcGFuPjwvdGV4dD48L2c+PC9nPjwvZz48ZyBjbGFzcz0iZWRnZUxhYmVsIj48ZyB0cmFuc2Zvcm09InRyYW5zbGF0ZSgwLCAwKSIgY2xhc3M9ImxhYmVsIj48dGV4dCB5PSItMTAuMSI+PHRzcGFuIGR5PSIxLjFlbSIgeT0iLTAuMWVtIiB4PSIwIiBjbGFzcz0idGV4dC1vdXRlci10c3BhbiI+PC90c3Bhbj48L3RleHQ+PC9nPjwvZz48ZyB0cmFuc2Zvcm09InRyYW5zbGF0ZSg0MTIuNDY0ODQzNzUsIDEwMzEuODQzNzUpIiBjbGFzcz0iZWRnZUxhYmVsIj48ZyB0cmFuc2Zvcm09InRyYW5zbGF0ZSgtMTEuNjA1NDY4NzUsIC0xMS41KSIgY2xhc3M9ImxhYmVsIj48Zz48cmVjdCBoZWlnaHQ9IjIzIiB3aWR0aD0iMjMuMjEwOTM3NSIgeT0iLTEiIHg9Ii0yIiBzdHlsZT0iIiBjbGFzcz0iYmFja2dyb3VuZCI+PC9yZWN0Pjx0ZXh0IHN0eWxlPSIiIHk9Ii0xMC4xIj48dHNwYW4gZHk9IjEuMWVtIiB5PSItMC4xZW0iIHg9IjAiIGNsYXNzPSJ0ZXh0LW91dGVyLXRzcGFuIj48dHNwYW4gZm9udC13ZWlnaHQ9Im5vcm1hbCIgY2xhc3M9InRleHQtaW5uZXItdHNwYW4iIGZvbnQtc3R5bGU9Im5vcm1hbCI+Tm88L3RzcGFuPjwvdHNwYW4+PC90ZXh0PjwvZz48L2c+PC9nPjxnIHRyYW5zZm9ybT0idHJhbnNsYXRlKDMxNC40MjU3ODEyNSwgMTY2NS4xNTYyNSkiIGNsYXNzPSJlZGdlTGFiZWwiPjxnIHRyYW5zZm9ybT0idHJhbnNsYXRlKC04Ljg0NzY1NjI1LCAtMTEuNSkiIGNsYXNzPSJsYWJlbCI+PGc+PHJlY3QgaGVpZ2h0PSIyMyIgd2lkdGg9IjE3LjY5NTMxMjUiIHk9Ii0xIiB4PSItMiIgc3R5bGU9IiIgY2xhc3M9ImJhY2tncm91bmQiPjwvcmVjdD48dGV4dCBzdHlsZT0iIiB5PSItMTAuMSI+PHRzcGFuIGR5PSIxLjFlbSIgeT0iLTAuMWVtIiB4PSIwIiBjbGFzcz0idGV4dC1vdXRlci10c3BhbiI+PHRzcGFuIGZvbnQtd2VpZ2h0PSJub3JtYWwiIGNsYXNzPSJ0ZXh0LWlubmVyLXRzcGFuIiBmb250LXN0eWxlPSJub3JtYWwiPlPDrTwvdHNwYW4+PC90c3Bhbj48L3RleHQ+PC9nPjwvZz48L2c+PGcgY2xhc3M9ImVkZ2VMYWJlbCI+PGcgdHJhbnNmb3JtPSJ0cmFuc2xhdGUoMCwgMCkiIGNsYXNzPSJsYWJlbCI+PHRleHQgeT0iLTEwLjEiPjx0c3BhbiBkeT0iMS4xZW0iIHk9Ii0wLjFlbSIgeD0iMCIgY2xhc3M9InRleHQtb3V0ZXItdHNwYW4iPjwvdHNwYW4+PC90ZXh0PjwvZz48L2c+PC9nPjxnIGNsYXNzPSJub2RlcyI+PGcgdHJhbnNmb3JtPSJ0cmFuc2xhdGUoMjcwLjgyMjI2NTYyNSwgNzIuNSkiIGlkPSJmbG93Y2hhcnQtQTMtNzgiIGNsYXNzPSJub2RlIGRlZmF1bHQiPjxyZWN0IGhlaWdodD0iNTQiIHdpZHRoPSI5OC44MjgxMjUiIHk9Ii0yNyIgeD0iLTQ5LjQxNDA2MjUiIHN0eWxlPSIiIGNsYXNzPSJiYXNpYyBsYWJlbC1jb250YWluZXIiPjwvcmVjdD48ZyB0cmFuc2Zvcm09InRyYW5zbGF0ZSgtMTkuNDE0MDYyNSwgLTEyKSIgc3R5bGU9IiIgY2xhc3M9ImxhYmVsIj48cmVjdD48L3JlY3Q+PGZvcmVpZ25PYmplY3QgaGVpZ2h0PSIyNCIgd2lkdGg9IjM4LjgyODEyNSI+PGRpdiBzdHlsZT0iZGlzcGxheTogdGFibGUtY2VsbDsgd2hpdGUtc3BhY2U6IG5vd3JhcDsgbGluZS1oZWlnaHQ6IDEuNTsgbWF4LXdpZHRoOiAyMDBweDsgdGV4dC1hbGlnbjogY2VudGVyOyIgeG1sbnM9Imh0dHA6Ly93d3cudzMub3JnLzE5OTkveGh0bWwiPjxzcGFuIGNsYXNzPSJub2RlTGFiZWwiPjxwPkluaWNpbzwvcD48L3NwYW4+PC9kaXY+PC9mb3JlaWduT2JqZWN0PjwvZz48L2c+PGcgdHJhbnNmb3JtPSJ0cmFuc2xhdGUoMjcwLjgyMjI2NTYyNSwgMjAxLjUpIiBpZD0iZmxvd2NoYXJ0LUIzLTc5IiBjbGFzcz0ibm9kZSBkZWZhdWx0Ij48cmVjdCBoZWlnaHQ9IjU0IiB3aWR0aD0iMTg3LjYwOTM3NSIgeT0iLTI3IiB4PSItOTMuODA0Njg3NSIgc3R5bGU9IiIgY2xhc3M9ImJhc2ljIGxhYmVsLWNvbnRhaW5lciI+PC9yZWN0PjxnIHRyYW5zZm9ybT0idHJhbnNsYXRlKC02My44MDQ2ODc1LCAtMTIpIiBzdHlsZT0iIiBjbGFzcz0ibGFiZWwiPjxyZWN0PjwvcmVjdD48Zm9yZWlnbk9iamVjdCBoZWlnaHQ9IjI0IiB3aWR0aD0iMTI3LjYwOTM3NSI+PGRpdiBzdHlsZT0iZGlzcGxheTogdGFibGUtY2VsbDsgd2hpdGUtc3BhY2U6IG5vd3JhcDsgbGluZS1oZWlnaHQ6IDEuNTsgbWF4LXdpZHRoOiAyMDBweDsgdGV4dC1hbGlnbjogY2VudGVyOyIgeG1sbnM9Imh0dHA6Ly93d3cudzMub3JnLzE5OTkveGh0bWwiPjxzcGFuIGNsYXNzPSJub2RlTGFiZWwiPjxwPkluaWNpYWxpemFyIGPDoW1hcmE8L3A+PC9zcGFuPjwvZGl2PjwvZm9yZWlnbk9iamVjdD48L2c+PC9nPjxnIHRyYW5zZm9ybT0idHJhbnNsYXRlKDI3MC44MjIyNjU2MjUsIDMzMC41KSIgaWQ9ImZsb3djaGFydC1DMy04MSIgY2xhc3M9Im5vZGUgZGVmYXVsdCI+PHJlY3QgaGVpZ2h0PSI1NCIgd2lkdGg9IjIyNC4zNzUiIHk9Ii0yNyIgeD0iLTExMi4xODc1IiBzdHlsZT0iIiBjbGFzcz0iYmFzaWMgbGFiZWwtY29udGFpbmVyIj48L3JlY3Q+PGcgdHJhbnNmb3JtPSJ0cmFuc2xhdGUoLTgyLjE4NzUsIC0xMikiIHN0eWxlPSIiIGNsYXNzPSJsYWJlbCI+PHJlY3Q+PC9yZWN0Pjxmb3JlaWduT2JqZWN0IGhlaWdodD0iMjQiIHdpZHRoPSIxNjQuMzc1Ij48ZGl2IHN0eWxlPSJkaXNwbGF5OiB0YWJsZS1jZWxsOyB3aGl0ZS1zcGFjZTogbm93cmFwOyBsaW5lLWhlaWdodDogMS41OyBtYXgtd2lkdGg6IDIwMHB4OyB0ZXh0LWFsaWduOiBjZW50ZXI7IiB4bWxucz0iaHR0cDovL3d3dy53My5vcmcvMTk5OS94aHRtbCI+PHNwYW4gY2xhc3M9Im5vZGVMYWJlbCI+PHA+SW5pY2lhbGl6YXIgbW90b3JlcyBFVjM8L3A+PC9zcGFuPjwvZGl2PjwvZm9yZWlnbk9iamVjdD48L2c+PC9nPjxnIHRyYW5zZm9ybT0idHJhbnNsYXRlKDI3MC44MjIyNjU2MjUsIDUxNC41MTU2MjUpIiBpZD0iZmxvd2NoYXJ0LUQzLTgzIiBjbGFzcz0ibm9kZSBkZWZhdWx0Ij48cG9seWdvbiB0cmFuc2Zvcm09InRyYW5zbGF0ZSgtODIuMDE1NjI1LDgyLjAxNTYyNSkiIGNsYXNzPSJsYWJlbC1jb250YWluZXIiIHBvaW50cz0iODIuMDE1NjI1LDAgMTY0LjAzMTI1LC04Mi4wMTU2MjUgODIuMDE1NjI1LC0xNjQuMDMxMjUgMCwtODIuMDE1NjI1Ij48L3BvbHlnb24+PGcgdHJhbnNmb3JtPSJ0cmFuc2xhdGUoLTU1LjAxNTYyNSwgLTEyKSIgc3R5bGU9IiIgY2xhc3M9ImxhYmVsIj48cmVjdD48L3JlY3Q+PGZvcmVpZ25PYmplY3QgaGVpZ2h0PSIyNCIgd2lkdGg9IjExMC4wMzEyNSI+PGRpdiBzdHlsZT0iZGlzcGxheTogdGFibGUtY2VsbDsgd2hpdGUtc3BhY2U6IG5vd3JhcDsgbGluZS1oZWlnaHQ6IDEuNTsgbWF4LXdpZHRoOiAyMDBweDsgdGV4dC1hbGlnbjogY2VudGVyOyIgeG1sbnM9Imh0dHA6Ly93d3cudzMub3JnLzE5OTkveGh0bWwiPjxzcGFuIGNsYXNzPSJub2RlTGFiZWwiPjxwPsK/TW90b3JlcyBsaXN0b3M/PC9wPjwvc3Bhbj48L2Rpdj48L2ZvcmVpZ25PYmplY3Q+PC9nPjwvZz48ZyB0cmFuc2Zvcm09InRyYW5zbGF0ZSgxNDMuMDU0Njg3NSwgNzIxLjUzMTI1KSIgaWQ9ImZsb3djaGFydC1FMy04NSIgY2xhc3M9Im5vZGUgZGVmYXVsdCI+PHJlY3QgaGVpZ2h0PSI1NCIgd2lkdGg9IjE3NS44NDM3NSIgeT0iLTI3IiB4PSItODcuOTIxODc1IiBzdHlsZT0iIiBjbGFzcz0iYmFzaWMgbGFiZWwtY29udGFpbmVyIj48L3JlY3Q+PGcgdHJhbnNmb3JtPSJ0cmFuc2xhdGUoLTU3LjkyMTg3NSwgLTEyKSIgc3R5bGU9IiIgY2xhc3M9ImxhYmVsIj48cmVjdD48L3JlY3Q+PGZvcmVpZ25PYmplY3QgaGVpZ2h0PSIyNCIgd2lkdGg9IjExNS44NDM3NSI+PGRpdiBzdHlsZT0iZGlzcGxheTogdGFibGUtY2VsbDsgd2hpdGUtc3BhY2U6IG5vd3JhcDsgbGluZS1oZWlnaHQ6IDEuNTsgbWF4LXdpZHRoOiAyMDBweDsgdGV4dC1hbGlnbjogY2VudGVyOyIgeG1sbnM9Imh0dHA6Ly93d3cudzMub3JnLzE5OTkveGh0bWwiPjxzcGFuIGNsYXNzPSJub2RlTGFiZWwiPjxwPkVycm9yIHkgdGVybWluYXI8L3A+PC9zcGFuPjwvZGl2PjwvZm9yZWlnbk9iamVjdD48L2c+PC9nPjxnIHRyYW5zZm9ybT0idHJhbnNsYXRlKDQ1NC42MjMwNDY4NzUsIDcyMS41MzEyNSkiIGlkPSJmbG93Y2hhcnQtRjMtODciIGNsYXNzPSJub2RlIGRlZmF1bHQiPjxyZWN0IGhlaWdodD0iNTQiIHdpZHRoPSIxNjEuOTY4NzUiIHk9Ii0yNyIgeD0iLTgwLjk4NDM3NSIgc3R5bGU9IiIgY2xhc3M9ImJhc2ljIGxhYmVsLWNvbnRhaW5lciI+PC9yZWN0PjxnIHRyYW5zZm9ybT0idHJhbnNsYXRlKC01MC45ODQzNzUsIC0xMikiIHN0eWxlPSIiIGNsYXNzPSJsYWJlbCI+PHJlY3Q+PC9yZWN0Pjxmb3JlaWduT2JqZWN0IGhlaWdodD0iMjQiIHdpZHRoPSIxMDEuOTY4NzUiPjxkaXYgc3R5bGU9ImRpc3BsYXk6IHRhYmxlLWNlbGw7IHdoaXRlLXNwYWNlOiBub3dyYXA7IGxpbmUtaGVpZ2h0OiAxLjU7IG1heC13aWR0aDogMjAwcHg7IHRleHQtYWxpZ246IGNlbnRlcjsiIHhtbG5zPSJodHRwOi8vd3d3LnczLm9yZy8xOTk5L3hodG1sIj48c3BhbiBjbGFzcz0ibm9kZUxhYmVsIj48cD5Mb29wIHByaW5jaXBhbDwvcD48L3NwYW4+PC9kaXY+PC9mb3JlaWduT2JqZWN0PjwvZz48L2c+PGcgdHJhbnNmb3JtPSJ0cmFuc2xhdGUoMTg1LjI0NDE0MDYyNSwgODUwLjUzMTI1KSIgaWQ9ImZsb3djaGFydC1HMy04OSIgY2xhc3M9Im5vZGUgZGVmYXVsdCI+PHJlY3QgaGVpZ2h0PSI1NCIgd2lkdGg9IjE3MC4xODc1IiB5PSItMjciIHg9Ii04NS4wOTM3NSIgc3R5bGU9IiIgY2xhc3M9ImJhc2ljIGxhYmVsLWNvbnRhaW5lciI+PC9yZWN0PjxnIHRyYW5zZm9ybT0idHJhbnNsYXRlKC01NS4wOTM3NSwgLTEyKSIgc3R5bGU9IiIgY2xhc3M9ImxhYmVsIj48cmVjdD48L3JlY3Q+PGZvcmVpZ25PYmplY3QgaGVpZ2h0PSIyNCIgd2lkdGg9IjExMC4xODc1Ij48ZGl2IHN0eWxlPSJkaXNwbGF5OiB0YWJsZS1jZWxsOyB3aGl0ZS1zcGFjZTogbm93cmFwOyBsaW5lLWhlaWdodDogMS41OyBtYXgtd2lkdGg6IDIwMHB4OyB0ZXh0LWFsaWduOiBjZW50ZXI7IiB4bWxucz0iaHR0cDovL3d3dy53My5vcmcvMTk5OS94aHRtbCI+PHNwYW4gY2xhc3M9Im5vZGVMYWJlbCI+PHA+Q2FwdHVyYXIgZnJhbWU8L3A+PC9zcGFuPjwvZGl2PjwvZm9yZWlnbk9iamVjdD48L2c+PC9nPjxnIHRyYW5zZm9ybT0idHJhbnNsYXRlKDI1MS4wOTM3NSwgMTAzMS44NDM3NSkiIGlkPSJmbG93Y2hhcnQtSDMtOTEiIGNsYXNzPSJub2RlIGRlZmF1bHQiPjxwb2x5Z29uIHRyYW5zZm9ybT0idHJhbnNsYXRlKC03OS4zMTI1LDc5LjMxMjUpIiBjbGFzcz0ibGFiZWwtY29udGFpbmVyIiBwb2ludHM9Ijc5LjMxMjUsMCAxNTguNjI1LC03OS4zMTI1IDc5LjMxMjUsLTE1OC42MjUgMCwtNzkuMzEyNSI+PC9wb2x5Z29uPjxnIHRyYW5zZm9ybT0idHJhbnNsYXRlKC01Mi4zMTI1LCAtMTIpIiBzdHlsZT0iIiBjbGFzcz0ibGFiZWwiPjxyZWN0PjwvcmVjdD48Zm9yZWlnbk9iamVjdCBoZWlnaHQ9IjI0IiB3aWR0aD0iMTA0LjYyNSI+PGRpdiBzdHlsZT0iZGlzcGxheTogdGFibGUtY2VsbDsgd2hpdGUtc3BhY2U6IG5vd3JhcDsgbGluZS1oZWlnaHQ6IDEuNTsgbWF4LXdpZHRoOiAyMDBweDsgdGV4dC1hbGlnbjogY2VudGVyOyIgeG1sbnM9Imh0dHA6Ly93d3cudzMub3JnLzE5OTkveGh0bWwiPjxzcGFuIGNsYXNzPSJub2RlTGFiZWwiPjxwPsK/RnJhbWUgdsOhbGlkbz88L3A+PC9zcGFuPjwvZGl2PjwvZm9yZWlnbk9iamVjdD48L2c+PC9nPjxnIHRyYW5zZm9ybT0idHJhbnNsYXRlKDI1MS4wOTM3NSwgMTIzNi4xNTYyNSkiIGlkPSJmbG93Y2hhcnQtSTMtOTUiIGNsYXNzPSJub2RlIGRlZmF1bHQiPjxyZWN0IGhlaWdodD0iNTQiIHdpZHRoPSIxODMuMzI4MTI1IiB5PSItMjciIHg9Ii05MS42NjQwNjI1IiBzdHlsZT0iIiBjbGFzcz0iYmFzaWMgbGFiZWwtY29udGFpbmVyIj48L3JlY3Q+PGcgdHJhbnNmb3JtPSJ0cmFuc2xhdGUoLTYxLjY2NDA2MjUsIC0xMikiIHN0eWxlPSIiIGNsYXNzPSJsYWJlbCI+PHJlY3Q+PC9yZWN0Pjxmb3JlaWduT2JqZWN0IGhlaWdodD0iMjQiIHdpZHRoPSIxMjMuMzI4MTI1Ij48ZGl2IHN0eWxlPSJkaXNwbGF5OiB0YWJsZS1jZWxsOyB3aGl0ZS1zcGFjZTogbm93cmFwOyBsaW5lLWhlaWdodDogMS41OyBtYXgtd2lkdGg6IDIwMHB4OyB0ZXh0LWFsaWduOiBjZW50ZXI7IiB4bWxucz0iaHR0cDovL3d3dy53My5vcmcvMTk5OS94aHRtbCI+PHNwYW4gY2xhc3M9Im5vZGVMYWJlbCI+PHA+Q2xhc2lmaWNhciBpbWFnZW48L3A+PC9zcGFuPjwvZGl2PjwvZm9yZWlnbk9iamVjdD48L2c+PC9nPjxnIHRyYW5zZm9ybT0idHJhbnNsYXRlKDMxNC40MjU3ODEyNSwgMTQ3Ny4xNTYyNSkiIGlkPSJmbG93Y2hhcnQtSjMtOTciIGNsYXNzPSJub2RlIGRlZmF1bHQiPjxwb2x5Z29uIHRyYW5zZm9ybT0idHJhbnNsYXRlKC0xMzksMTM5KSIgY2xhc3M9ImxhYmVsLWNvbnRhaW5lciIgcG9pbnRzPSIxMzksMCAyNzgsLTEzOSAxMzksLTI3OCAwLC0xMzkiPjwvcG9seWdvbj48ZyB0cmFuc2Zvcm09InRyYW5zbGF0ZSgtMTAwLCAtMjQpIiBzdHlsZT0iIiBjbGFzcz0ibGFiZWwiPjxyZWN0PjwvcmVjdD48Zm9yZWlnbk9iamVjdCBoZWlnaHQ9IjQ4IiB3aWR0aD0iMjAwIj48ZGl2IHN0eWxlPSJkaXNwbGF5OiB0YWJsZTsgd2hpdGUtc3BhY2U6IGJyZWFrLXNwYWNlczsgbGluZS1oZWlnaHQ6IDEuNTsgbWF4LXdpZHRoOiAyMDBweDsgdGV4dC1hbGlnbjogY2VudGVyOyB3aWR0aDogMjAwcHg7IiB4bWxucz0iaHR0cDovL3d3dy53My5vcmcvMTk5OS94aHRtbCI+PHNwYW4gY2xhc3M9Im5vZGVMYWJlbCI+PHA+wr9PYmpldG8gb2JqZXRpdm8gZGV0ZWN0YWRvPzwvcD48L3NwYW4+PC9kaXY+PC9mb3JlaWduT2JqZWN0PjwvZz48L2c+PGcgdHJhbnNmb3JtPSJ0cmFuc2xhdGUoNDUxLjY3MzgyODEyNSwgMTc0MS4xNTYyNSkiIGlkPSJmbG93Y2hhcnQtSzMtMTAxIiBjbGFzcz0ibm9kZSBkZWZhdWx0Ij48cmVjdCBoZWlnaHQ9IjU0IiB3aWR0aD0iMTczLjc2NTYyNSIgeT0iLTI3IiB4PSItODYuODgyODEyNSIgc3R5bGU9IiIgY2xhc3M9ImJhc2ljIGxhYmVsLWNvbnRhaW5lciI+PC9yZWN0PjxnIHRyYW5zZm9ybT0idHJhbnNsYXRlKC01Ni44ODI4MTI1LCAtMTIpIiBzdHlsZT0iIiBjbGFzcz0ibGFiZWwiPjxyZWN0PjwvcmVjdD48Zm9yZWlnbk9iamVjdCBoZWlnaHQ9IjI0IiB3aWR0aD0iMTEzLjc2NTYyNSI+PGRpdiBzdHlsZT0iZGlzcGxheTogdGFibGUtY2VsbDsgd2hpdGUtc3BhY2U6IG5vd3JhcDsgbGluZS1oZWlnaHQ6IDEuNTsgbWF4LXdpZHRoOiAyMDBweDsgdGV4dC1hbGlnbjogY2VudGVyOyIgeG1sbnM9Imh0dHA6Ly93d3cudzMub3JnLzE5OTkveGh0bWwiPjxzcGFuIGNsYXNzPSJub2RlTGFiZWwiPjxwPkFjdGl2YXIgbW90b3JlczwvcD48L3NwYW4+PC9kaXY+PC9mb3JlaWduT2JqZWN0PjwvZz48L2c+PC9nPjwvZz48ZyB0cmFuc2Zvcm09InRyYW5zbGF0ZSg2MjguMjA4OTg0Mzc1LCAyOTIuNzE4NzUpIiBjbGFzcz0icm9vdCI+PGcgY2xhc3M9ImNsdXN0ZXJzIj48ZyBkYXRhLWxvb2s9ImNsYXNzaWMiIGlkPSJNb3RvcmVzIiBjbGFzcz0iY2x1c3RlciI+PHJlY3QgaGVpZ2h0PSIxMjEyLjIxODc1IiB3aWR0aD0iNjQwIiB5PSI4IiB4PSI4IiBzdHlsZT0iIj48L3JlY3Q+PGcgdHJhbnNmb3JtPSJ0cmFuc2xhdGUoMjk5LjA5Mzc1LCA4KSIgY2xhc3M9ImNsdXN0ZXItbGFiZWwiPjxnPjxyZWN0IHN0eWxlPSJzdHJva2U6IG5vbmUiIGNsYXNzPSJiYWNrZ3JvdW5kIj48L3JlY3Q+PHRleHQgc3R5bGU9IiIgeT0iLTEwLjEiPjx0c3BhbiBkeT0iMS4xZW0iIHk9Ii0wLjFlbSIgeD0iMCIgY2xhc3M9InRleHQtb3V0ZXItdHNwYW4iPjx0c3BhbiBmb250LXdlaWdodD0ibm9ybWFsIiBjbGFzcz0idGV4dC1pbm5lci10c3BhbiIgZm9udC1zdHlsZT0ibm9ybWFsIj5Nb3RvcmVzPC90c3Bhbj48L3RzcGFuPjwvdGV4dD48L2c+PC9nPjwvZz48L2c+PGcgY2xhc3M9ImVkZ2VQYXRocyI+PHBhdGggbWFya2VyLWVuZD0idXJsKCNnZU1lcm1haWRPdXRwdXQtMTc1NTU3MzU3Nzc2M19mbG93Y2hhcnQtdjItcG9pbnRFbmQpIiBzdHlsZT0iIiBjbGFzcz0iZWRnZS10aGlja25lc3Mtbm9ybWFsIGVkZ2UtcGF0dGVybi1zb2xpZCBlZGdlLXRoaWNrbmVzcy1ub3JtYWwgZWRnZS1wYXR0ZXJuLXNvbGlkIGZsb3djaGFydC1saW5rIiBpZD0iTF9BMl9CMl8yMCIgZD0iTTMyOCw5OS41TDMyOCwxMDUuNzVDMzI4LDExMiwzMjgsMTI0LjUsMzI4LDEzNi4zMzNDMzI4LDE0OC4xNjcsMzI4LDE1OS4zMzMsMzI4LDE2NC45MTdMMzI4LDE3MC41Ij48L3BhdGg+PHBhdGggbWFya2VyLWVuZD0idXJsKCNnZU1lcm1haWRPdXRwdXQtMTc1NTU3MzU3Nzc2M19mbG93Y2hhcnQtdjItcG9pbnRFbmQpIiBzdHlsZT0iIiBjbGFzcz0iZWRnZS10aGlja25lc3Mtbm9ybWFsIGVkZ2UtcGF0dGVybi1zb2xpZCBlZGdlLXRoaWNrbmVzcy1ub3JtYWwgZWRnZS1wYXR0ZXJuLXNvbGlkIGZsb3djaGFydC1saW5rIiBpZD0iTF9CMl9DMl8yMSIgZD0iTTMyOCwyMjguNUwzMjgsMjM0Ljc1QzMyOCwyNDEsMzI4LDI1My41LDMyOC4wNzUsMjY1LjQxN0MzMjguMTQ5LDI3Ny4zMzMsMzI4LjI5OCwyODguNjY3LDMyOC4zNzMsMjk0LjMzNEwzMjguNDQ3LDMwMCI+PC9wYXRoPjxwYXRoIG1hcmtlci1lbmQ9InVybCgjZ2VNZXJtYWlkT3V0cHV0LTE3NTU1NzM1Nzc3NjNfZmxvd2NoYXJ0LXYyLXBvaW50RW5kKSIgc3R5bGU9IiIgY2xhc3M9ImVkZ2UtdGhpY2tuZXNzLW5vcm1hbCBlZGdlLXBhdHRlcm4tc29saWQgZWRnZS10aGlja25lc3Mtbm9ybWFsIGVkZ2UtcGF0dGVybi1zb2xpZCBmbG93Y2hhcnQtbGluayIgaWQ9IkxfQzJfRDJfMjIiIGQ9Ik0yNzkuNzQ3LDQ0Mi40NjVMMjYxLjk1Niw0NTguNjc0QzI0NC4xNjQsNDc0Ljg4MywyMDguNTgyLDUwNy4zMDEsMTkwLjc5MSw1MzEuMDFDMTczLDU1NC43MTksMTczLDU2OS43MTksMTczLDU3Ny4yMTlMMTczLDU4NC43MTkiPjwvcGF0aD48cGF0aCBtYXJrZXItZW5kPSJ1cmwoI2dlTWVybWFpZE91dHB1dC0xNzU1NTczNTc3NzYzX2Zsb3djaGFydC12Mi1wb2ludEVuZCkiIHN0eWxlPSIiIGNsYXNzPSJlZGdlLXRoaWNrbmVzcy1ub3JtYWwgZWRnZS1wYXR0ZXJuLXNvbGlkIGVkZ2UtdGhpY2tuZXNzLW5vcm1hbCBlZGdlLXBhdHRlcm4tc29saWQgZmxvd2NoYXJ0LWxpbmsiIGlkPSJMX0MyX0UyXzIzIiBkPSJNMzc3LjI1Myw0NDIuNDY1TDM5NC44NzgsNDU4LjY3NEM0MTIuNTAyLDQ3NC44ODMsNDQ3Ljc1MSw1MDcuMzAxLDQ2NS4zNzYsNTMxLjAxQzQ4Myw1NTQuNzE5LDQ4Myw1NjkuNzE5LDQ4Myw1NzcuMjE5TDQ4Myw1ODQuNzE5Ij48L3BhdGg+PHBhdGggbWFya2VyLWVuZD0idXJsKCNnZU1lcm1haWRPdXRwdXQtMTc1NTU3MzU3Nzc2M19mbG93Y2hhcnQtdjItcG9pbnRFbmQpIiBzdHlsZT0iIiBjbGFzcz0iZWRnZS10aGlja25lc3Mtbm9ybWFsIGVkZ2UtcGF0dGVybi1zb2xpZCBlZGdlLXRoaWNrbmVzcy1ub3JtYWwgZWRnZS1wYXR0ZXJuLXNvbGlkIGZsb3djaGFydC1saW5rIiBpZD0iTF9FMl9GMl8yNCIgZD0iTTQ4Myw2NjYuNzE5TDQ4Myw2NzIuOTY5QzQ4Myw2NzkuMjE5LDQ4Myw2OTEuNzE5LDQ4Myw3MDMuNTUyQzQ4Myw3MTUuMzg1LDQ4Myw3MjYuNTUyLDQ4Myw3MzIuMTM1TDQ4Myw3MzcuNzE5Ij48L3BhdGg+PHBhdGggbWFya2VyLWVuZD0idXJsKCNnZU1lcm1haWRPdXRwdXQtMTc1NTU3MzU3Nzc2M19mbG93Y2hhcnQtdjItcG9pbnRFbmQpIiBzdHlsZT0iIiBjbGFzcz0iZWRnZS10aGlja25lc3Mtbm9ybWFsIGVkZ2UtcGF0dGVybi1zb2xpZCBlZGdlLXRoaWNrbmVzcy1ub3JtYWwgZWRnZS1wYXR0ZXJuLXNvbGlkIGZsb3djaGFydC1saW5rIiBpZD0iTF9GMl9HMl8yNSIgZD0iTTQ4Myw3OTUuNzE5TDQ4Myw4MDEuOTY5QzQ4Myw4MDguMjE5LDQ4Myw4MjAuNzE5LDQ4Myw4MzIuNTUyQzQ4Myw4NDQuMzg1LDQ4Myw4NTUuNTUyLDQ4Myw4NjEuMTM1TDQ4Myw4NjYuNzE5Ij48L3BhdGg+PHBhdGggbWFya2VyLWVuZD0idXJsKCNnZU1lcm1haWRPdXRwdXQtMTc1NTU3MzU3Nzc2M19mbG93Y2hhcnQtdjItcG9pbnRFbmQpIiBzdHlsZT0iIiBjbGFzcz0iZWRnZS10aGlja25lc3Mtbm9ybWFsIGVkZ2UtcGF0dGVybi1zb2xpZCBlZGdlLXRoaWNrbmVzcy1ub3JtYWwgZWRnZS1wYXR0ZXJuLXNvbGlkIGZsb3djaGFydC1saW5rIiBpZD0iTF9HMl9IMl8yNiIgZD0iTTQ4Myw5MjQuNzE5TDQ4Myw5MzAuOTY5QzQ4Myw5MzcuMjE5LDQ4Myw5NDkuNzE5LDQ4Myw5NjEuNTUyQzQ4Myw5NzMuMzg1LDQ4Myw5ODQuNTUyLDQ4Myw5OTAuMTM1TDQ4Myw5OTUuNzE5Ij48L3BhdGg+PHBhdGggbWFya2VyLWVuZD0idXJsKCNnZU1lcm1haWRPdXRwdXQtMTc1NTU3MzU3Nzc2M19mbG93Y2hhcnQtdjItcG9pbnRFbmQpIiBzdHlsZT0iIiBjbGFzcz0iZWRnZS10aGlja25lc3Mtbm9ybWFsIGVkZ2UtcGF0dGVybi1zb2xpZCBlZGdlLXRoaWNrbmVzcy1ub3JtYWwgZWRnZS1wYXR0ZXJuLXNvbGlkIGZsb3djaGFydC1saW5rIiBpZD0iTF9IMl9JMl8yNyIgZD0iTTQ4MywxMDUzLjcxOUw0ODMsMTA1OS45NjlDNDgzLDEwNjYuMjE5LDQ4MywxMDc4LjcxOSw0ODMsMTA5MC41NTJDNDgzLDExMDIuMzg1LDQ4MywxMTEzLjU1Miw0ODMsMTExOS4xMzVMNDgzLDExMjQuNzE5Ij48L3BhdGg+PC9nPjxnIGNsYXNzPSJlZGdlTGFiZWxzIj48Zz48cmVjdCBzdHlsZT0ic3Ryb2tlOiBub25lIiBjbGFzcz0iYmFja2dyb3VuZCI+PC9yZWN0PjwvZz48Zz48cmVjdCBzdHlsZT0ic3Ryb2tlOiBub25lIiBjbGFzcz0iYmFja2dyb3VuZCI+PC9yZWN0PjwvZz48Zz48cmVjdCBzdHlsZT0ic3Ryb2tlOiBub25lIiBjbGFzcz0iYmFja2dyb3VuZCI+PC9yZWN0PjwvZz48Zz48cmVjdCBzdHlsZT0ic3Ryb2tlOiBub25lIiBjbGFzcz0iYmFja2dyb3VuZCI+PC9yZWN0PjwvZz48Zz48cmVjdCBzdHlsZT0ic3Ryb2tlOiBub25lIiBjbGFzcz0iYmFja2dyb3VuZCI+PC9yZWN0PjwvZz48Zz48cmVjdCBzdHlsZT0ic3Ryb2tlOiBub25lIiBjbGFzcz0iYmFja2dyb3VuZCI+PC9yZWN0PjwvZz48ZyBjbGFzcz0iZWRnZUxhYmVsIj48ZyB0cmFuc2Zvcm09InRyYW5zbGF0ZSgwLCAwKSIgY2xhc3M9ImxhYmVsIj48dGV4dCB5PSItMTAuMSI+PHRzcGFuIGR5PSIxLjFlbSIgeT0iLTAuMWVtIiB4PSIwIiBjbGFzcz0idGV4dC1vdXRlci10c3BhbiI+PC90c3Bhbj48L3RleHQ+PC9nPjwvZz48ZyBjbGFzcz0iZWRnZUxhYmVsIj48ZyB0cmFuc2Zvcm09InRyYW5zbGF0ZSgwLCAwKSIgY2xhc3M9ImxhYmVsIj48dGV4dCB5PSItMTAuMSI+PHRzcGFuIGR5PSIxLjFlbSIgeT0iLTAuMWVtIiB4PSIwIiBjbGFzcz0idGV4dC1vdXRlci10c3BhbiI+PC90c3Bhbj48L3RleHQ+PC9nPjwvZz48ZyB0cmFuc2Zvcm09InRyYW5zbGF0ZSgxNzMsIDUzOS43MTg3NSkiIGNsYXNzPSJlZGdlTGFiZWwiPjxnIHRyYW5zZm9ybT0idHJhbnNsYXRlKC0xMS42MDU0Njg3NSwgLTExLjUpIiBjbGFzcz0ibGFiZWwiPjxnPjxyZWN0IGhlaWdodD0iMjMiIHdpZHRoPSIyMy4yMTA5Mzc1IiB5PSItMSIgeD0iLTIiIHN0eWxlPSIiIGNsYXNzPSJiYWNrZ3JvdW5kIj48L3JlY3Q+PHRleHQgc3R5bGU9IiIgeT0iLTEwLjEiPjx0c3BhbiBkeT0iMS4xZW0iIHk9Ii0wLjFlbSIgeD0iMCIgY2xhc3M9InRleHQtb3V0ZXItdHNwYW4iPjx0c3BhbiBmb250LXdlaWdodD0ibm9ybWFsIiBjbGFzcz0idGV4dC1pbm5lci10c3BhbiIgZm9udC1zdHlsZT0ibm9ybWFsIj5ObzwvdHNwYW4+PC90c3Bhbj48L3RleHQ+PC9nPjwvZz48L2c+PGcgdHJhbnNmb3JtPSJ0cmFuc2xhdGUoNDgzLCA1MzkuNzE4NzUpIiBjbGFzcz0iZWRnZUxhYmVsIj48ZyB0cmFuc2Zvcm09InRyYW5zbGF0ZSgtOC44NDc2NTYyNSwgLTExLjUpIiBjbGFzcz0ibGFiZWwiPjxnPjxyZWN0IGhlaWdodD0iMjMiIHdpZHRoPSIxNy42OTUzMTI1IiB5PSItMSIgeD0iLTIiIHN0eWxlPSIiIGNsYXNzPSJiYWNrZ3JvdW5kIj48L3JlY3Q+PHRleHQgc3R5bGU9IiIgeT0iLTEwLjEiPjx0c3BhbiBkeT0iMS4xZW0iIHk9Ii0wLjFlbSIgeD0iMCIgY2xhc3M9InRleHQtb3V0ZXItdHNwYW4iPjx0c3BhbiBmb250LXdlaWdodD0ibm9ybWFsIiBjbGFzcz0idGV4dC1pbm5lci10c3BhbiIgZm9udC1zdHlsZT0ibm9ybWFsIj5Tw608L3RzcGFuPjwvdHNwYW4+PC90ZXh0PjwvZz48L2c+PC9nPjxnIGNsYXNzPSJlZGdlTGFiZWwiPjxnIHRyYW5zZm9ybT0idHJhbnNsYXRlKDAsIDApIiBjbGFzcz0ibGFiZWwiPjx0ZXh0IHk9Ii0xMC4xIj48dHNwYW4gZHk9IjEuMWVtIiB5PSItMC4xZW0iIHg9IjAiIGNsYXNzPSJ0ZXh0LW91dGVyLXRzcGFuIj48L3RzcGFuPjwvdGV4dD48L2c+PC9nPjxnIGNsYXNzPSJlZGdlTGFiZWwiPjxnIHRyYW5zZm9ybT0idHJhbnNsYXRlKDAsIDApIiBjbGFzcz0ibGFiZWwiPjx0ZXh0IHk9Ii0xMC4xIj48dHNwYW4gZHk9IjEuMWVtIiB5PSItMC4xZW0iIHg9IjAiIGNsYXNzPSJ0ZXh0LW91dGVyLXRzcGFuIj48L3RzcGFuPjwvdGV4dD48L2c+PC9nPjxnIGNsYXNzPSJlZGdlTGFiZWwiPjxnIHRyYW5zZm9ybT0idHJhbnNsYXRlKDAsIDApIiBjbGFzcz0ibGFiZWwiPjx0ZXh0IHk9Ii0xMC4xIj48dHNwYW4gZHk9IjEuMWVtIiB5PSItMC4xZW0iIHg9IjAiIGNsYXNzPSJ0ZXh0LW91dGVyLXRzcGFuIj48L3RzcGFuPjwvdGV4dD48L2c+PC9nPjxnIGNsYXNzPSJlZGdlTGFiZWwiPjxnIHRyYW5zZm9ybT0idHJhbnNsYXRlKDAsIDApIiBjbGFzcz0ibGFiZWwiPjx0ZXh0IHk9Ii0xMC4xIj48dHNwYW4gZHk9IjEuMWVtIiB5PSItMC4xZW0iIHg9IjAiIGNsYXNzPSJ0ZXh0LW91dGVyLXRzcGFuIj48L3RzcGFuPjwvdGV4dD48L2c+PC9nPjwvZz48ZyBjbGFzcz0ibm9kZXMiPjxnIHRyYW5zZm9ybT0idHJhbnNsYXRlKDMyOCwgNzIuNSkiIGlkPSJmbG93Y2hhcnQtQTItNjIiIGNsYXNzPSJub2RlIGRlZmF1bHQiPjxyZWN0IGhlaWdodD0iNTQiIHdpZHRoPSI5OC44MjgxMjUiIHk9Ii0yNyIgeD0iLTQ5LjQxNDA2MjUiIHN0eWxlPSIiIGNsYXNzPSJiYXNpYyBsYWJlbC1jb250YWluZXIiPjwvcmVjdD48ZyB0cmFuc2Zvcm09InRyYW5zbGF0ZSgtMTkuNDE0MDYyNSwgLTEyKSIgc3R5bGU9IiIgY2xhc3M9ImxhYmVsIj48cmVjdD48L3JlY3Q+PGZvcmVpZ25PYmplY3QgaGVpZ2h0PSIyNCIgd2lkdGg9IjM4LjgyODEyNSI+PGRpdiBzdHlsZT0iZGlzcGxheTogdGFibGUtY2VsbDsgd2hpdGUtc3BhY2U6IG5vd3JhcDsgbGluZS1oZWlnaHQ6IDEuNTsgbWF4LXdpZHRoOiAyMDBweDsgdGV4dC1hbGlnbjogY2VudGVyOyIgeG1sbnM9Imh0dHA6Ly93d3cudzMub3JnLzE5OTkveGh0bWwiPjxzcGFuIGNsYXNzPSJub2RlTGFiZWwiPjxwPkluaWNpbzwvcD48L3NwYW4+PC9kaXY+PC9mb3JlaWduT2JqZWN0PjwvZz48L2c+PGcgdHJhbnNmb3JtPSJ0cmFuc2xhdGUoMzI4LCAyMDEuNSkiIGlkPSJmbG93Y2hhcnQtQjItNjMiIGNsYXNzPSJub2RlIGRlZmF1bHQiPjxyZWN0IGhlaWdodD0iNTQiIHdpZHRoPSIyMzEuOTY4NzUiIHk9Ii0yNyIgeD0iLTExNS45ODQzNzUiIHN0eWxlPSIiIGNsYXNzPSJiYXNpYyBsYWJlbC1jb250YWluZXIiPjwvcmVjdD48ZyB0cmFuc2Zvcm09InRyYW5zbGF0ZSgtODUuOTg0Mzc1LCAtMTIpIiBzdHlsZT0iIiBjbGFzcz0ibGFiZWwiPjxyZWN0PjwvcmVjdD48Zm9yZWlnbk9iamVjdCBoZWlnaHQ9IjI0IiB3aWR0aD0iMTcxLjk2ODc1Ij48ZGl2IHN0eWxlPSJkaXNwbGF5OiB0YWJsZS1jZWxsOyB3aGl0ZS1zcGFjZTogbm93cmFwOyBsaW5lLWhlaWdodDogMS41OyBtYXgtd2lkdGg6IDIwMHB4OyB0ZXh0LWFsaWduOiBjZW50ZXI7IiB4bWxucz0iaHR0cDovL3d3dy53My5vcmcvMTk5OS94aHRtbCI+PHNwYW4gY2xhc3M9Im5vZGVMYWJlbCI+PHA+Q29uZWN0YXIgYSBtb3RvcmVzIEVWMzwvcD48L3NwYW4+PC9kaXY+PC9mb3JlaWduT2JqZWN0PjwvZz48L2c+PGcgdHJhbnNmb3JtPSJ0cmFuc2xhdGUoMzI4LCAzOTcuMTA5Mzc1KSIgaWQ9ImZsb3djaGFydC1DMi02NSIgY2xhc3M9Im5vZGUgZGVmYXVsdCI+PHBvbHlnb24gdHJhbnNmb3JtPSJ0cmFuc2xhdGUoLTkzLjYwOTM3NSw5My42MDkzNzUpIiBjbGFzcz0ibGFiZWwtY29udGFpbmVyIiBwb2ludHM9IjkzLjYwOTM3NSwwIDE4Ny4yMTg3NSwtOTMuNjA5Mzc1IDkzLjYwOTM3NSwtMTg3LjIxODc1IDAsLTkzLjYwOTM3NSI+PC9wb2x5Z29uPjxnIHRyYW5zZm9ybT0idHJhbnNsYXRlKC02Ni42MDkzNzUsIC0xMikiIHN0eWxlPSIiIGNsYXNzPSJsYWJlbCI+PHJlY3Q+PC9yZWN0Pjxmb3JlaWduT2JqZWN0IGhlaWdodD0iMjQiIHdpZHRoPSIxMzMuMjE4NzUiPjxkaXYgc3R5bGU9ImRpc3BsYXk6IHRhYmxlLWNlbGw7IHdoaXRlLXNwYWNlOiBub3dyYXA7IGxpbmUtaGVpZ2h0OiAxLjU7IG1heC13aWR0aDogMjAwcHg7IHRleHQtYWxpZ246IGNlbnRlcjsiIHhtbG5zPSJodHRwOi8vd3d3LnczLm9yZy8xOTk5L3hodG1sIj48c3BhbiBjbGFzcz0ibm9kZUxhYmVsIj48cD7Cv0NvbmV4acOzbiBleGl0b3NhPzwvcD48L3NwYW4+PC9kaXY+PC9mb3JlaWduT2JqZWN0PjwvZz48L2c+PGcgdHJhbnNmb3JtPSJ0cmFuc2xhdGUoMTczLCA2MjcuNzE4NzUpIiBpZD0iZmxvd2NoYXJ0LUQyLTY3IiBjbGFzcz0ibm9kZSBkZWZhdWx0Ij48cmVjdCBoZWlnaHQ9Ijc4IiB3aWR0aD0iMjYwIiB5PSItMzkiIHg9Ii0xMzAiIHN0eWxlPSIiIGNsYXNzPSJiYXNpYyBsYWJlbC1jb250YWluZXIiPjwvcmVjdD48ZyB0cmFuc2Zvcm09InRyYW5zbGF0ZSgtMTAwLCAtMjQpIiBzdHlsZT0iIiBjbGFzcz0ibGFiZWwiPjxyZWN0PjwvcmVjdD48Zm9yZWlnbk9iamVjdCBoZWlnaHQ9IjQ4IiB3aWR0aD0iMjAwIj48ZGl2IHN0eWxlPSJkaXNwbGF5OiB0YWJsZTsgd2hpdGUtc3BhY2U6IGJyZWFrLXNwYWNlczsgbGluZS1oZWlnaHQ6IDEuNTsgbWF4LXdpZHRoOiAyMDBweDsgdGV4dC1hbGlnbjogY2VudGVyOyB3aWR0aDogMjAwcHg7IiB4bWxucz0iaHR0cDovL3d3dy53My5vcmcvMTk5OS94aHRtbCI+PHNwYW4gY2xhc3M9Im5vZGVMYWJlbCI+PHA+RXJyb3I6IE5vIHNlIHB1ZWRlbiBpbmljaWFsaXphciBtb3RvcmVzPC9wPjwvc3Bhbj48L2Rpdj48L2ZvcmVpZ25PYmplY3Q+PC9nPjwvZz48ZyB0cmFuc2Zvcm09InRyYW5zbGF0ZSg0ODMsIDYyNy43MTg3NSkiIGlkPSJmbG93Y2hhcnQtRTItNjkiIGNsYXNzPSJub2RlIGRlZmF1bHQiPjxyZWN0IGhlaWdodD0iNzgiIHdpZHRoPSIyNjAiIHk9Ii0zOSIgeD0iLTEzMCIgc3R5bGU9IiIgY2xhc3M9ImJhc2ljIGxhYmVsLWNvbnRhaW5lciI+PC9yZWN0PjxnIHRyYW5zZm9ybT0idHJhbnNsYXRlKC0xMDAsIC0yNCkiIHN0eWxlPSIiIGNsYXNzPSJsYWJlbCI+PHJlY3Q+PC9yZWN0Pjxmb3JlaWduT2JqZWN0IGhlaWdodD0iNDgiIHdpZHRoPSIyMDAiPjxkaXYgc3R5bGU9ImRpc3BsYXk6IHRhYmxlOyB3aGl0ZS1zcGFjZTogYnJlYWstc3BhY2VzOyBsaW5lLWhlaWdodDogMS41OyBtYXgtd2lkdGg6IDIwMHB4OyB0ZXh0LWFsaWduOiBjZW50ZXI7IHdpZHRoOiAyMDBweDsiIHhtbG5zPSJodHRwOi8vd3d3LnczLm9yZy8xOTk5L3hodG1sIj48c3BhbiBjbGFzcz0ibm9kZUxhYmVsIj48cD5SZWNpYmlyIGNvbWFuZG8gZGUgbW92aW1pZW50bzwvcD48L3NwYW4+PC9kaXY+PC9mb3JlaWduT2JqZWN0PjwvZz48L2c+PGcgdHJhbnNmb3JtPSJ0cmFuc2xhdGUoNDgzLCA3NjguNzE4NzUpIiBpZD0iZmxvd2NoYXJ0LUYyLTcxIiBjbGFzcz0ibm9kZSBkZWZhdWx0Ij48cmVjdCBoZWlnaHQ9IjU0IiB3aWR0aD0iMTY1Ljc2NTYyNSIgeT0iLTI3IiB4PSItODIuODgyODEyNSIgc3R5bGU9IiIgY2xhc3M9ImJhc2ljIGxhYmVsLWNvbnRhaW5lciI+PC9yZWN0PjxnIHRyYW5zZm9ybT0idHJhbnNsYXRlKC01Mi44ODI4MTI1LCAtMTIpIiBzdHlsZT0iIiBjbGFzcz0ibGFiZWwiPjxyZWN0PjwvcmVjdD48Zm9yZWlnbk9iamVjdCBoZWlnaHQ9IjI0IiB3aWR0aD0iMTA1Ljc2NTYyNSI+PGRpdiBzdHlsZT0iZGlzcGxheTogdGFibGUtY2VsbDsgd2hpdGUtc3BhY2U6IG5vd3JhcDsgbGluZS1oZWlnaHQ6IDEuNTsgbWF4LXdpZHRoOiAyMDBweDsgdGV4dC1hbGlnbjogY2VudGVyOyIgeG1sbnM9Imh0dHA6Ly93d3cudzMub3JnLzE5OTkveGh0bWwiPjxzcGFuIGNsYXNzPSJub2RlTGFiZWwiPjxwPk1vdmVyIG1vdG9yZXM8L3A+PC9zcGFuPjwvZGl2PjwvZm9yZWlnbk9iamVjdD48L2c+PC9nPjxnIHRyYW5zZm9ybT0idHJhbnNsYXRlKDQ4MywgODk3LjcxODc1KSIgaWQ9ImZsb3djaGFydC1HMi03MyIgY2xhc3M9Im5vZGUgZGVmYXVsdCI+PHJlY3QgaGVpZ2h0PSI1NCIgd2lkdGg9IjE4MC40NTMxMjUiIHk9Ii0yNyIgeD0iLTkwLjIyNjU2MjUiIHN0eWxlPSIiIGNsYXNzPSJiYXNpYyBsYWJlbC1jb250YWluZXIiPjwvcmVjdD48ZyB0cmFuc2Zvcm09InRyYW5zbGF0ZSgtNjAuMjI2NTYyNSwgLTEyKSIgc3R5bGU9IiIgY2xhc3M9ImxhYmVsIj48cmVjdD48L3JlY3Q+PGZvcmVpZ25PYmplY3QgaGVpZ2h0PSIyNCIgd2lkdGg9IjEyMC40NTMxMjUiPjxkaXYgc3R5bGU9ImRpc3BsYXk6IHRhYmxlLWNlbGw7IHdoaXRlLXNwYWNlOiBub3dyYXA7IGxpbmUtaGVpZ2h0OiAxLjU7IG1heC13aWR0aDogMjAwcHg7IHRleHQtYWxpZ246IGNlbnRlcjsiIHhtbG5zPSJodHRwOi8vd3d3LnczLm9yZy8xOTk5L3hodG1sIj48c3BhbiBjbGFzcz0ibm9kZUxhYmVsIj48cD5Fc3BlcmFyIGR1cmFjacOzbjwvcD48L3NwYW4+PC9kaXY+PC9mb3JlaWduT2JqZWN0PjwvZz48L2c+PGcgdHJhbnNmb3JtPSJ0cmFuc2xhdGUoNDgzLCAxMDI2LjcxODc1KSIgaWQ9ImZsb3djaGFydC1IMi03NSIgY2xhc3M9Im5vZGUgZGVmYXVsdCI+PHJlY3QgaGVpZ2h0PSI1NCIgd2lkdGg9IjE4MC4zNDM3NSIgeT0iLTI3IiB4PSItOTAuMTcxODc1IiBzdHlsZT0iIiBjbGFzcz0iYmFzaWMgbGFiZWwtY29udGFpbmVyIj48L3JlY3Q+PGcgdHJhbnNmb3JtPSJ0cmFuc2xhdGUoLTYwLjE3MTg3NSwgLTEyKSIgc3R5bGU9IiIgY2xhc3M9ImxhYmVsIj48cmVjdD48L3JlY3Q+PGZvcmVpZ25PYmplY3QgaGVpZ2h0PSIyNCIgd2lkdGg9IjEyMC4zNDM3NSI+PGRpdiBzdHlsZT0iZGlzcGxheTogdGFibGUtY2VsbDsgd2hpdGUtc3BhY2U6IG5vd3JhcDsgbGluZS1oZWlnaHQ6IDEuNTsgbWF4LXdpZHRoOiAyMDBweDsgdGV4dC1hbGlnbjogY2VudGVyOyIgeG1sbnM9Imh0dHA6Ly93d3cudzMub3JnLzE5OTkveGh0bWwiPjxzcGFuIGNsYXNzPSJub2RlTGFiZWwiPjxwPkRldGVuZXIgbW90b3JlczwvcD48L3NwYW4+PC9kaXY+PC9mb3JlaWduT2JqZWN0PjwvZz48L2c+PGcgdHJhbnNmb3JtPSJ0cmFuc2xhdGUoNDgzLCAxMTU1LjcxODc1KSIgaWQ9ImZsb3djaGFydC1JMi03NyIgY2xhc3M9Im5vZGUgZGVmYXVsdCI+PHJlY3QgaGVpZ2h0PSI1NCIgd2lkdGg9IjgxLjcwMzEyNSIgeT0iLTI3IiB4PSItNDAuODUxNTYyNSIgc3R5bGU9IiIgY2xhc3M9ImJhc2ljIGxhYmVsLWNvbnRhaW5lciI+PC9yZWN0PjxnIHRyYW5zZm9ybT0idHJhbnNsYXRlKC0xMC44NTE1NjI1LCAtMTIpIiBzdHlsZT0iIiBjbGFzcz0ibGFiZWwiPjxyZWN0PjwvcmVjdD48Zm9yZWlnbk9iamVjdCBoZWlnaHQ9IjI0IiB3aWR0aD0iMjEuNzAzMTI1Ij48ZGl2IHN0eWxlPSJkaXNwbGF5OiB0YWJsZS1jZWxsOyB3aGl0ZS1zcGFjZTogbm93cmFwOyBsaW5lLWhlaWdodDogMS41OyBtYXgtd2lkdGg6IDIwMHB4OyB0ZXh0LWFsaWduOiBjZW50ZXI7IiB4bWxucz0iaHR0cDovL3d3dy53My5vcmcvMTk5OS94aHRtbCI+PHNwYW4gY2xhc3M9Im5vZGVMYWJlbCI+PHA+RmluPC9wPjwvc3Bhbj48L2Rpdj48L2ZvcmVpZ25PYmplY3Q+PC9nPjwvZz48L2c+PC9nPjxnIHRyYW5zZm9ybT0idHJhbnNsYXRlKDEzMTguMjA4OTg0Mzc1LCAyNDIuNTE1NjI1KSIgY2xhc3M9InJvb3QiPjxnIGNsYXNzPSJjbHVzdGVycyI+PGcgZGF0YS1sb29rPSJjbGFzc2ljIiBpZD0iQ2xhc2lmaWNhY2lvbiIgY2xhc3M9ImNsdXN0ZXIiPjxyZWN0IGhlaWdodD0iMTMxMi42MjUiIHdpZHRoPSI1NzQuOTAyMzQzNzUiIHk9IjgiIHg9IjgiIHN0eWxlPSIiPjwvcmVjdD48ZyB0cmFuc2Zvcm09InRyYW5zbGF0ZSgyNTAuMTQ2NDg0Mzc1LCA4KSIgY2xhc3M9ImNsdXN0ZXItbGFiZWwiPjxnPjxyZWN0IHN0eWxlPSJzdHJva2U6IG5vbmUiIGNsYXNzPSJiYWNrZ3JvdW5kIj48L3JlY3Q+PHRleHQgc3R5bGU9IiIgeT0iLTEwLjEiPjx0c3BhbiBkeT0iMS4xZW0iIHk9Ii0wLjFlbSIgeD0iMCIgY2xhc3M9InRleHQtb3V0ZXItdHNwYW4iPjx0c3BhbiBmb250LXdlaWdodD0ibm9ybWFsIiBjbGFzcz0idGV4dC1pbm5lci10c3BhbiIgZm9udC1zdHlsZT0ibm9ybWFsIj5DbGFzaWZpY2FjaW9uPC90c3Bhbj48L3RzcGFuPjwvdGV4dD48L2c+PC9nPjwvZz48L2c+PGcgY2xhc3M9ImVkZ2VQYXRocyI+PHBhdGggbWFya2VyLWVuZD0idXJsKCNnZU1lcm1haWRPdXRwdXQtMTc1NTU3MzU3Nzc2M19mbG93Y2hhcnQtdjItcG9pbnRFbmQpIiBzdHlsZT0iIiBjbGFzcz0iZWRnZS10aGlja25lc3Mtbm9ybWFsIGVkZ2UtcGF0dGVybi1zb2xpZCBlZGdlLXRoaWNrbmVzcy1ub3JtYWwgZWRnZS1wYXR0ZXJuLXNvbGlkIGZsb3djaGFydC1saW5rIiBpZD0iTF9BMV9CMV8xMSIgZD0iTTI4OS40NDEsOTkuNUwyODkuNDQxLDEwNS43NUMyODkuNDQxLDExMiwyODkuNDQxLDEyNC41LDI4OS40NDEsMTM2LjMzM0MyODkuNDQxLDE0OC4xNjcsMjg5LjQ0MSwxNTkuMzMzLDI4OS40NDEsMTY0LjkxN0wyODkuNDQxLDE3MC41Ij48L3BhdGg+PHBhdGggbWFya2VyLWVuZD0idXJsKCNnZU1lcm1haWRPdXRwdXQtMTc1NTU3MzU3Nzc2M19mbG93Y2hhcnQtdjItcG9pbnRFbmQpIiBzdHlsZT0iIiBjbGFzcz0iZWRnZS10aGlja25lc3Mtbm9ybWFsIGVkZ2UtcGF0dGVybi1zb2xpZCBlZGdlLXRoaWNrbmVzcy1ub3JtYWwgZWRnZS1wYXR0ZXJuLXNvbGlkIGZsb3djaGFydC1saW5rIiBpZD0iTF9CMV9DMV8xMiIgZD0iTTI4OS40NDEsMjI4LjVMMjg5LjQ0MSwyMzQuNzVDMjg5LjQ0MSwyNDEsMjg5LjQ0MSwyNTMuNSwyODkuNDQxLDI2NS4zMzNDMjg5LjQ0MSwyNzcuMTY3LDI4OS40NDEsMjg4LjMzMywyODkuNDQxLDI5My45MTdMMjg5LjQ0MSwyOTkuNSI+PC9wYXRoPjxwYXRoIG1hcmtlci1lbmQ9InVybCgjZ2VNZXJtYWlkT3V0cHV0LTE3NTU1NzM1Nzc3NjNfZmxvd2NoYXJ0LXYyLXBvaW50RW5kKSIgc3R5bGU9IiIgY2xhc3M9ImVkZ2UtdGhpY2tuZXNzLW5vcm1hbCBlZGdlLXBhdHRlcm4tc29saWQgZWRnZS10aGlja25lc3Mtbm9ybWFsIGVkZ2UtcGF0dGVybi1zb2xpZCBmbG93Y2hhcnQtbGluayIgaWQ9IkxfQzFfRDFfMTMiIGQ9Ik0yODkuNDQxLDM1Ny41TDI4OS40NDEsMzYzLjc1QzI4OS40NDEsMzcwLDI4OS40NDEsMzgyLjUsMjg5LjUxNiwzOTQuNDE3QzI4OS41OTEsNDA2LjMzMywyODkuNzQsNDE3LjY2NywyODkuODE0LDQyMy4zMzRMMjg5Ljg4OSw0MjkiPjwvcGF0aD48cGF0aCBtYXJrZXItZW5kPSJ1cmwoI2dlTWVybWFpZE91dHB1dC0xNzU1NTczNTc3NzYzX2Zsb3djaGFydC12Mi1wb2ludEVuZCkiIHN0eWxlPSIiIGNsYXNzPSJlZGdlLXRoaWNrbmVzcy1ub3JtYWwgZWRnZS1wYXR0ZXJuLXNvbGlkIGVkZ2UtdGhpY2tuZXNzLW5vcm1hbCBlZGdlLXBhdHRlcm4tc29saWQgZmxvd2NoYXJ0LWxpbmsiIGlkPSJMX0QxX0UxXzE0IiBkPSJNMjUwLjI2Miw1NTEuOTQ2TDIzNS4zODIsNTY2LjY0MkMyMjAuNTAyLDU4MS4zMzksMTkwLjc0MSw2MTAuNzMyLDE3NS44NjEsNjMyLjkyOEMxNjAuOTgsNjU1LjEyNSwxNjAuOTgsNjcwLjEyNSwxNjAuOTgsNjc3LjYyNUwxNjAuOTgsNjg1LjEyNSI+PC9wYXRoPjxwYXRoIG1hcmtlci1lbmQ9InVybCgjZ2VNZXJtYWlkT3V0cHV0LTE3NTU1NzM1Nzc3NjNfZmxvd2NoYXJ0LXYyLXBvaW50RW5kKSIgc3R5bGU9IiIgY2xhc3M9ImVkZ2UtdGhpY2tuZXNzLW5vcm1hbCBlZGdlLXBhdHRlcm4tc29saWQgZWRnZS10aGlja25lc3Mtbm9ybWFsIGVkZ2UtcGF0dGVybi1zb2xpZCBmbG93Y2hhcnQtbGluayIgaWQ9IkxfRDFfRjFfMTUiIGQ9Ik0zMjkuNjIxLDU1MS45NDZMMzQ0LjMzNCw1NjYuNjQyQzM1OS4wNDgsNTgxLjMzOSwzODguNDc1LDYxMC43MzIsNDAzLjE4OSw2MzIuOTI4QzQxNy45MDIsNjU1LjEyNSw0MTcuOTAyLDY3MC4xMjUsNDE3LjkwMiw2NzcuNjI1TDQxNy45MDIsNjg1LjEyNSI+PC9wYXRoPjxwYXRoIG1hcmtlci1lbmQ9InVybCgjZ2VNZXJtYWlkT3V0cHV0LTE3NTU1NzM1Nzc3NjNfZmxvd2NoYXJ0LXYyLXBvaW50RW5kKSIgc3R5bGU9IiIgY2xhc3M9ImVkZ2UtdGhpY2tuZXNzLW5vcm1hbCBlZGdlLXBhdHRlcm4tc29saWQgZWRnZS10aGlja25lc3Mtbm9ybWFsIGVkZ2UtcGF0dGVybi1zb2xpZCBmbG93Y2hhcnQtbGluayIgaWQ9IkxfRjFfRzFfMTYiIGQ9Ik00MTcuOTAyLDc0My4xMjVMNDE3LjkwMiw3NDkuMzc1QzQxNy45MDIsNzU1LjYyNSw0MTcuOTAyLDc2OC4xMjUsNDE3LjkwMiw3NzkuOTU4QzQxNy45MDIsNzkxLjc5Miw0MTcuOTAyLDgwMi45NTgsNDE3LjkwMiw4MDguNTQyTDQxNy45MDIsODE0LjEyNSI+PC9wYXRoPjxwYXRoIG1hcmtlci1lbmQ9InVybCgjZ2VNZXJtYWlkT3V0cHV0LTE3NTU1NzM1Nzc3NjNfZmxvd2NoYXJ0LXYyLXBvaW50RW5kKSIgc3R5bGU9IiIgY2xhc3M9ImVkZ2UtdGhpY2tuZXNzLW5vcm1hbCBlZGdlLXBhdHRlcm4tc29saWQgZWRnZS10aGlja25lc3Mtbm9ybWFsIGVkZ2UtcGF0dGVybi1zb2xpZCBmbG93Y2hhcnQtbGluayIgaWQ9IkxfRzFfSDFfMTciIGQ9Ik00MTcuOTAyLDg3Mi4xMjVMNDE3LjkwMiw4NzguMzc1QzQxNy45MDIsODg0LjYyNSw0MTcuOTAyLDg5Ny4xMjUsNDE3LjkwMiw5MDguOTU4QzQxNy45MDIsOTIwLjc5Miw0MTcuOTAyLDkzMS45NTgsNDE3LjkwMiw5MzcuNTQyTDQxNy45MDIsOTQzLjEyNSI+PC9wYXRoPjxwYXRoIG1hcmtlci1lbmQ9InVybCgjZ2VNZXJtYWlkT3V0cHV0LTE3NTU1NzM1Nzc3NjNfZmxvd2NoYXJ0LXYyLXBvaW50RW5kKSIgc3R5bGU9IiIgY2xhc3M9ImVkZ2UtdGhpY2tuZXNzLW5vcm1hbCBlZGdlLXBhdHRlcm4tc29saWQgZWRnZS10aGlja25lc3Mtbm9ybWFsIGVkZ2UtcGF0dGVybi1zb2xpZCBmbG93Y2hhcnQtbGluayIgaWQ9IkxfSDFfSTFfMTgiIGQ9Ik00MTcuOTAyLDEwMDEuMTI1TDQxNy45MDIsMTAwNy4zNzVDNDE3LjkwMiwxMDEzLjYyNSw0MTcuOTAyLDEwMjYuMTI1LDQxNy45MDIsMTAzNy45NThDNDE3LjkwMiwxMDQ5Ljc5Miw0MTcuOTAyLDEwNjAuOTU4LDQxNy45MDIsMTA2Ni41NDJMNDE3LjkwMiwxMDcyLjEyNSI+PC9wYXRoPjxwYXRoIG1hcmtlci1lbmQ9InVybCgjZ2VNZXJtYWlkT3V0cHV0LTE3NTU1NzM1Nzc3NjNfZmxvd2NoYXJ0LXYyLXBvaW50RW5kKSIgc3R5bGU9IiIgY2xhc3M9ImVkZ2UtdGhpY2tuZXNzLW5vcm1hbCBlZGdlLXBhdHRlcm4tc29saWQgZWRnZS10aGlja25lc3Mtbm9ybWFsIGVkZ2UtcGF0dGVybi1zb2xpZCBmbG93Y2hhcnQtbGluayIgaWQ9IkxfSTFfSjFfMTkiIGQ9Ik00MTcuOTAyLDExNTQuMTI1TDQxNy45MDIsMTE2MC4zNzVDNDE3LjkwMiwxMTY2LjYyNSw0MTcuOTAyLDExNzkuMTI1LDQxNy45MDIsMTE5MC45NThDNDE3LjkwMiwxMjAyLjc5Miw0MTcuOTAyLDEyMTMuOTU4LDQxNy45MDIsMTIxOS41NDJMNDE3LjkwMiwxMjI1LjEyNSI+PC9wYXRoPjwvZz48ZyBjbGFzcz0iZWRnZUxhYmVscyI+PGc+PHJlY3Qgc3R5bGU9InN0cm9rZTogbm9uZSIgY2xhc3M9ImJhY2tncm91bmQiPjwvcmVjdD48L2c+PGc+PHJlY3Qgc3R5bGU9InN0cm9rZTogbm9uZSIgY2xhc3M9ImJhY2tncm91bmQiPjwvcmVjdD48L2c+PGc+PHJlY3Qgc3R5bGU9InN0cm9rZTogbm9uZSIgY2xhc3M9ImJhY2tncm91bmQiPjwvcmVjdD48L2c+PGc+PHJlY3Qgc3R5bGU9InN0cm9rZTogbm9uZSIgY2xhc3M9ImJhY2tncm91bmQiPjwvcmVjdD48L2c+PGc+PHJlY3Qgc3R5bGU9InN0cm9rZTogbm9uZSIgY2xhc3M9ImJhY2tncm91bmQiPjwvcmVjdD48L2c+PGc+PHJlY3Qgc3R5bGU9InN0cm9rZTogbm9uZSIgY2xhc3M9ImJhY2tncm91bmQiPjwvcmVjdD48L2c+PGc+PHJlY3Qgc3R5bGU9InN0cm9rZTogbm9uZSIgY2xhc3M9ImJhY2tncm91bmQiPjwvcmVjdD48L2c+PGcgY2xhc3M9ImVkZ2VMYWJlbCI+PGcgdHJhbnNmb3JtPSJ0cmFuc2xhdGUoMCwgMCkiIGNsYXNzPSJsYWJlbCI+PHRleHQgeT0iLTEwLjEiPjx0c3BhbiBkeT0iMS4xZW0iIHk9Ii0wLjFlbSIgeD0iMCIgY2xhc3M9InRleHQtb3V0ZXItdHNwYW4iPjwvdHNwYW4+PC90ZXh0PjwvZz48L2c+PGcgY2xhc3M9ImVkZ2VMYWJlbCI+PGcgdHJhbnNmb3JtPSJ0cmFuc2xhdGUoMCwgMCkiIGNsYXNzPSJsYWJlbCI+PHRleHQgeT0iLTEwLjEiPjx0c3BhbiBkeT0iMS4xZW0iIHk9Ii0wLjFlbSIgeD0iMCIgY2xhc3M9InRleHQtb3V0ZXItdHNwYW4iPjwvdHNwYW4+PC90ZXh0PjwvZz48L2c+PGcgY2xhc3M9ImVkZ2VMYWJlbCI+PGcgdHJhbnNmb3JtPSJ0cmFuc2xhdGUoMCwgMCkiIGNsYXNzPSJsYWJlbCI+PHRleHQgeT0iLTEwLjEiPjx0c3BhbiBkeT0iMS4xZW0iIHk9Ii0wLjFlbSIgeD0iMCIgY2xhc3M9InRleHQtb3V0ZXItdHNwYW4iPjwvdHNwYW4+PC90ZXh0PjwvZz48L2c+PGcgdHJhbnNmb3JtPSJ0cmFuc2xhdGUoMTYwLjk4MDQ2ODc1LCA2NDAuMTI1KSIgY2xhc3M9ImVkZ2VMYWJlbCI+PGcgdHJhbnNmb3JtPSJ0cmFuc2xhdGUoLTExLjYwNTQ2ODc1LCAtMTEuNSkiIGNsYXNzPSJsYWJlbCI+PGc+PHJlY3QgaGVpZ2h0PSIyMyIgd2lkdGg9IjIzLjIxMDkzNzUiIHk9Ii0xIiB4PSItMiIgc3R5bGU9IiIgY2xhc3M9ImJhY2tncm91bmQiPjwvcmVjdD48dGV4dCBzdHlsZT0iIiB5PSItMTAuMSI+PHRzcGFuIGR5PSIxLjFlbSIgeT0iLTAuMWVtIiB4PSIwIiBjbGFzcz0idGV4dC1vdXRlci10c3BhbiI+PHRzcGFuIGZvbnQtd2VpZ2h0PSJub3JtYWwiIGNsYXNzPSJ0ZXh0LWlubmVyLXRzcGFuIiBmb250LXN0eWxlPSJub3JtYWwiPk5vPC90c3Bhbj48L3RzcGFuPjwvdGV4dD48L2c+PC9nPjwvZz48ZyB0cmFuc2Zvcm09InRyYW5zbGF0ZSg0MTcuOTAyMzQzNzUsIDY0MC4xMjUpIiBjbGFzcz0iZWRnZUxhYmVsIj48ZyB0cmFuc2Zvcm09InRyYW5zbGF0ZSgtOC44NDc2NTYyNSwgLTExLjUpIiBjbGFzcz0ibGFiZWwiPjxnPjxyZWN0IGhlaWdodD0iMjMiIHdpZHRoPSIxNy42OTUzMTI1IiB5PSItMSIgeD0iLTIiIHN0eWxlPSIiIGNsYXNzPSJiYWNrZ3JvdW5kIj48L3JlY3Q+PHRleHQgc3R5bGU9IiIgeT0iLTEwLjEiPjx0c3BhbiBkeT0iMS4xZW0iIHk9Ii0wLjFlbSIgeD0iMCIgY2xhc3M9InRleHQtb3V0ZXItdHNwYW4iPjx0c3BhbiBmb250LXdlaWdodD0ibm9ybWFsIiBjbGFzcz0idGV4dC1pbm5lci10c3BhbiIgZm9udC1zdHlsZT0ibm9ybWFsIj5Tw608L3RzcGFuPjwvdHNwYW4+PC90ZXh0PjwvZz48L2c+PC9nPjxnIGNsYXNzPSJlZGdlTGFiZWwiPjxnIHRyYW5zZm9ybT0idHJhbnNsYXRlKDAsIDApIiBjbGFzcz0ibGFiZWwiPjx0ZXh0IHk9Ii0xMC4xIj48dHNwYW4gZHk9IjEuMWVtIiB5PSItMC4xZW0iIHg9IjAiIGNsYXNzPSJ0ZXh0LW91dGVyLXRzcGFuIj48L3RzcGFuPjwvdGV4dD48L2c+PC9nPjxnIGNsYXNzPSJlZGdlTGFiZWwiPjxnIHRyYW5zZm9ybT0idHJhbnNsYXRlKDAsIDApIiBjbGFzcz0ibGFiZWwiPjx0ZXh0IHk9Ii0xMC4xIj48dHNwYW4gZHk9IjEuMWVtIiB5PSItMC4xZW0iIHg9IjAiIGNsYXNzPSJ0ZXh0LW91dGVyLXRzcGFuIj48L3RzcGFuPjwvdGV4dD48L2c+PC9nPjxnIGNsYXNzPSJlZGdlTGFiZWwiPjxnIHRyYW5zZm9ybT0idHJhbnNsYXRlKDAsIDApIiBjbGFzcz0ibGFiZWwiPjx0ZXh0IHk9Ii0xMC4xIj48dHNwYW4gZHk9IjEuMWVtIiB5PSItMC4xZW0iIHg9IjAiIGNsYXNzPSJ0ZXh0LW91dGVyLXRzcGFuIj48L3RzcGFuPjwvdGV4dD48L2c+PC9nPjxnIGNsYXNzPSJlZGdlTGFiZWwiPjxnIHRyYW5zZm9ybT0idHJhbnNsYXRlKDAsIDApIiBjbGFzcz0ibGFiZWwiPjx0ZXh0IHk9Ii0xMC4xIj48dHNwYW4gZHk9IjEuMWVtIiB5PSItMC4xZW0iIHg9IjAiIGNsYXNzPSJ0ZXh0LW91dGVyLXRzcGFuIj48L3RzcGFuPjwvdGV4dD48L2c+PC9nPjwvZz48ZyBjbGFzcz0ibm9kZXMiPjxnIHRyYW5zZm9ybT0idHJhbnNsYXRlKDI4OS40NDE0MDYyNSwgNzIuNSkiIGlkPSJmbG93Y2hhcnQtQTEtNDQiIGNsYXNzPSJub2RlIGRlZmF1bHQiPjxyZWN0IGhlaWdodD0iNTQiIHdpZHRoPSI5OC44MjgxMjUiIHk9Ii0yNyIgeD0iLTQ5LjQxNDA2MjUiIHN0eWxlPSIiIGNsYXNzPSJiYXNpYyBsYWJlbC1jb250YWluZXIiPjwvcmVjdD48ZyB0cmFuc2Zvcm09InRyYW5zbGF0ZSgtMTkuNDE0MDYyNSwgLTEyKSIgc3R5bGU9IiIgY2xhc3M9ImxhYmVsIj48cmVjdD48L3JlY3Q+PGZvcmVpZ25PYmplY3QgaGVpZ2h0PSIyNCIgd2lkdGg9IjM4LjgyODEyNSI+PGRpdiBzdHlsZT0iZGlzcGxheTogdGFibGUtY2VsbDsgd2hpdGUtc3BhY2U6IG5vd3JhcDsgbGluZS1oZWlnaHQ6IDEuNTsgbWF4LXdpZHRoOiAyMDBweDsgdGV4dC1hbGlnbjogY2VudGVyOyIgeG1sbnM9Imh0dHA6Ly93d3cudzMub3JnLzE5OTkveGh0bWwiPjxzcGFuIGNsYXNzPSJub2RlTGFiZWwiPjxwPkluaWNpbzwvcD48L3NwYW4+PC9kaXY+PC9mb3JlaWduT2JqZWN0PjwvZz48L2c+PGcgdHJhbnNmb3JtPSJ0cmFuc2xhdGUoMjg5LjQ0MTQwNjI1LCAyMDEuNSkiIGlkPSJmbG93Y2hhcnQtQjEtNDUiIGNsYXNzPSJub2RlIGRlZmF1bHQiPjxyZWN0IGhlaWdodD0iNTQiIHdpZHRoPSIyNTkuMjM0Mzc1IiB5PSItMjciIHg9Ii0xMjkuNjE3MTg3NSIgc3R5bGU9IiIgY2xhc3M9ImJhc2ljIGxhYmVsLWNvbnRhaW5lciI+PC9yZWN0PjxnIHRyYW5zZm9ybT0idHJhbnNsYXRlKC05OS42MTcxODc1LCAtMTIpIiBzdHlsZT0iIiBjbGFzcz0ibGFiZWwiPjxyZWN0PjwvcmVjdD48Zm9yZWlnbk9iamVjdCBoZWlnaHQ9IjI0IiB3aWR0aD0iMTk5LjIzNDM3NSI+PGRpdiBzdHlsZT0iZGlzcGxheTogdGFibGUtY2VsbDsgd2hpdGUtc3BhY2U6IG5vd3JhcDsgbGluZS1oZWlnaHQ6IDEuNTsgbWF4LXdpZHRoOiAyMDBweDsgdGV4dC1hbGlnbjogY2VudGVyOyIgeG1sbnM9Imh0dHA6Ly93d3cudzMub3JnLzE5OTkveGh0bWwiPjxzcGFuIGNsYXNzPSJub2RlTGFiZWwiPjxwPkNhcmdhciBtb2RlbG8gTW9iaWxlTmV0VjI8L3A+PC9zcGFuPjwvZGl2PjwvZm9yZWlnbk9iamVjdD48L2c+PC9nPjxnIHRyYW5zZm9ybT0idHJhbnNsYXRlKDI4OS40NDE0MDYyNSwgMzMwLjUpIiBpZD0iZmxvd2NoYXJ0LUMxLTQ3IiBjbGFzcz0ibm9kZSBkZWZhdWx0Ij48cmVjdCBoZWlnaHQ9IjU0IiB3aWR0aD0iMTU2LjkzNzUiIHk9Ii0yNyIgeD0iLTc4LjQ2ODc1IiBzdHlsZT0iIiBjbGFzcz0iYmFzaWMgbGFiZWwtY29udGFpbmVyIj48L3JlY3Q+PGcgdHJhbnNmb3JtPSJ0cmFuc2xhdGUoLTQ4LjQ2ODc1LCAtMTIpIiBzdHlsZT0iIiBjbGFzcz0ibGFiZWwiPjxyZWN0PjwvcmVjdD48Zm9yZWlnbk9iamVjdCBoZWlnaHQ9IjI0IiB3aWR0aD0iOTYuOTM3NSI+PGRpdiBzdHlsZT0iZGlzcGxheTogdGFibGUtY2VsbDsgd2hpdGUtc3BhY2U6IG5vd3JhcDsgbGluZS1oZWlnaHQ6IDEuNTsgbWF4LXdpZHRoOiAyMDBweDsgdGV4dC1hbGlnbjogY2VudGVyOyIgeG1sbnM9Imh0dHA6Ly93d3cudzMub3JnLzE5OTkveGh0bWwiPjxzcGFuIGNsYXNzPSJub2RlTGFiZWwiPjxwPlJlY2liaXIgZnJhbWU8L3A+PC9zcGFuPjwvZGl2PjwvZm9yZWlnbk9iamVjdD48L2c+PC9nPjxnIHRyYW5zZm9ybT0idHJhbnNsYXRlKDI4OS40NDE0MDYyNSwgNTExLjgxMjUpIiBpZD0iZmxvd2NoYXJ0LUQxLTQ5IiBjbGFzcz0ibm9kZSBkZWZhdWx0Ij48cG9seWdvbiB0cmFuc2Zvcm09InRyYW5zbGF0ZSgtNzkuMzEyNSw3OS4zMTI1KSIgY2xhc3M9ImxhYmVsLWNvbnRhaW5lciIgcG9pbnRzPSI3OS4zMTI1LDAgMTU4LjYyNSwtNzkuMzEyNSA3OS4zMTI1LC0xNTguNjI1IDAsLTc5LjMxMjUiPjwvcG9seWdvbj48ZyB0cmFuc2Zvcm09InRyYW5zbGF0ZSgtNTIuMzEyNSwgLTEyKSIgc3R5bGU9IiIgY2xhc3M9ImxhYmVsIj48cmVjdD48L3JlY3Q+PGZvcmVpZ25PYmplY3QgaGVpZ2h0PSIyNCIgd2lkdGg9IjEwNC42MjUiPjxkaXYgc3R5bGU9ImRpc3BsYXk6IHRhYmxlLWNlbGw7IHdoaXRlLXNwYWNlOiBub3dyYXA7IGxpbmUtaGVpZ2h0OiAxLjU7IG1heC13aWR0aDogMjAwcHg7IHRleHQtYWxpZ246IGNlbnRlcjsiIHhtbG5zPSJodHRwOi8vd3d3LnczLm9yZy8xOTk5L3hodG1sIj48c3BhbiBjbGFzcz0ibm9kZUxhYmVsIj48cD7Cv0ZyYW1lIHbDoWxpZG8/PC9wPjwvc3Bhbj48L2Rpdj48L2ZvcmVpZ25PYmplY3Q+PC9nPjwvZz48ZyB0cmFuc2Zvcm09InRyYW5zbGF0ZSgxNjAuOTgwNDY4NzUsIDcxNi4xMjUpIiBpZD0iZmxvd2NoYXJ0LUUxLTUxIiBjbGFzcz0ibm9kZSBkZWZhdWx0Ij48cmVjdCBoZWlnaHQ9IjU0IiB3aWR0aD0iMjEyLjY4NzUiIHk9Ii0yNyIgeD0iLTEwNi4zNDM3NSIgc3R5bGU9IiIgY2xhc3M9ImJhc2ljIGxhYmVsLWNvbnRhaW5lciI+PC9yZWN0PjxnIHRyYW5zZm9ybT0idHJhbnNsYXRlKC03Ni4zNDM3NSwgLTEyKSIgc3R5bGU9IiIgY2xhc3M9ImxhYmVsIj48cmVjdD48L3JlY3Q+PGZvcmVpZ25PYmplY3QgaGVpZ2h0PSIyNCIgd2lkdGg9IjE1Mi42ODc1Ij48ZGl2IHN0eWxlPSJkaXNwbGF5OiB0YWJsZS1jZWxsOyB3aGl0ZS1zcGFjZTogbm93cmFwOyBsaW5lLWhlaWdodDogMS41OyBtYXgtd2lkdGg6IDIwMHB4OyB0ZXh0LWFsaWduOiBjZW50ZXI7IiB4bWxucz0iaHR0cDovL3d3dy53My5vcmcvMTk5OS94aHRtbCI+PHNwYW4gY2xhc3M9Im5vZGVMYWJlbCI+PHA+RXJyb3I6IEZyYW1lIGludsOhbGlkbzwvcD48L3NwYW4+PC9kaXY+PC9mb3JlaWduT2JqZWN0PjwvZz48L2c+PGcgdHJhbnNmb3JtPSJ0cmFuc2xhdGUoNDE3LjkwMjM0Mzc1LCA3MTYuMTI1KSIgaWQ9ImZsb3djaGFydC1GMS01MyIgY2xhc3M9Im5vZGUgZGVmYXVsdCI+PHJlY3QgaGVpZ2h0PSI1NCIgd2lkdGg9IjIwMS4xNTYyNSIgeT0iLTI3IiB4PSItMTAwLjU3ODEyNSIgc3R5bGU9IiIgY2xhc3M9ImJhc2ljIGxhYmVsLWNvbnRhaW5lciI+PC9yZWN0PjxnIHRyYW5zZm9ybT0idHJhbnNsYXRlKC03MC41NzgxMjUsIC0xMikiIHN0eWxlPSIiIGNsYXNzPSJsYWJlbCI+PHJlY3Q+PC9yZWN0Pjxmb3JlaWduT2JqZWN0IGhlaWdodD0iMjQiIHdpZHRoPSIxNDEuMTU2MjUiPjxkaXYgc3R5bGU9ImRpc3BsYXk6IHRhYmxlLWNlbGw7IHdoaXRlLXNwYWNlOiBub3dyYXA7IGxpbmUtaGVpZ2h0OiAxLjU7IG1heC13aWR0aDogMjAwcHg7IHRleHQtYWxpZ246IGNlbnRlcjsiIHhtbG5zPSJodHRwOi8vd3d3LnczLm9yZy8xOTk5L3hodG1sIj48c3BhbiBjbGFzcz0ibm9kZUxhYmVsIj48cD5QcmVwcm9jZXNhciBpbWFnZW48L3A+PC9zcGFuPjwvZGl2PjwvZm9yZWlnbk9iamVjdD48L2c+PC9nPjxnIHRyYW5zZm9ybT0idHJhbnNsYXRlKDQxNy45MDIzNDM3NSwgODQ1LjEyNSkiIGlkPSJmbG93Y2hhcnQtRzEtNTUiIGNsYXNzPSJub2RlIGRlZmF1bHQiPjxyZWN0IGhlaWdodD0iNTQiIHdpZHRoPSIyMDcuMTcxODc1IiB5PSItMjciIHg9Ii0xMDMuNTg1OTM3NSIgc3R5bGU9IiIgY2xhc3M9ImJhc2ljIGxhYmVsLWNvbnRhaW5lciI+PC9yZWN0PjxnIHRyYW5zZm9ybT0idHJhbnNsYXRlKC03My41ODU5Mzc1LCAtMTIpIiBzdHlsZT0iIiBjbGFzcz0ibGFiZWwiPjxyZWN0PjwvcmVjdD48Zm9yZWlnbk9iamVjdCBoZWlnaHQ9IjI0IiB3aWR0aD0iMTQ3LjE3MTg3NSI+PGRpdiBzdHlsZT0iZGlzcGxheTogdGFibGUtY2VsbDsgd2hpdGUtc3BhY2U6IG5vd3JhcDsgbGluZS1oZWlnaHQ6IDEuNTsgbWF4LXdpZHRoOiAyMDBweDsgdGV4dC1hbGlnbjogY2VudGVyOyIgeG1sbnM9Imh0dHA6Ly93d3cudzMub3JnLzE5OTkveGh0bWwiPjxzcGFuIGNsYXNzPSJub2RlTGFiZWwiPjxwPlByZWRlY2lyIGNvbiBtb2RlbG88L3A+PC9zcGFuPjwvZGl2PjwvZm9yZWlnbk9iamVjdD48L2c+PC9nPjxnIHRyYW5zZm9ybT0idHJhbnNsYXRlKDQxNy45MDIzNDM3NSwgOTc0LjEyNSkiIGlkPSJmbG93Y2hhcnQtSDEtNTciIGNsYXNzPSJub2RlIGRlZmF1bHQiPjxyZWN0IGhlaWdodD0iNTQiIHdpZHRoPSIyMzYuNjQwNjI1IiB5PSItMjciIHg9Ii0xMTguMzIwMzEyNSIgc3R5bGU9IiIgY2xhc3M9ImJhc2ljIGxhYmVsLWNvbnRhaW5lciI+PC9yZWN0PjxnIHRyYW5zZm9ybT0idHJhbnNsYXRlKC04OC4zMjAzMTI1LCAtMTIpIiBzdHlsZT0iIiBjbGFzcz0ibGFiZWwiPjxyZWN0PjwvcmVjdD48Zm9yZWlnbk9iamVjdCBoZWlnaHQ9IjI0IiB3aWR0aD0iMTc2LjY0MDYyNSI+PGRpdiBzdHlsZT0iZGlzcGxheTogdGFibGUtY2VsbDsgd2hpdGUtc3BhY2U6IG5vd3JhcDsgbGluZS1oZWlnaHQ6IDEuNTsgbWF4LXdpZHRoOiAyMDBweDsgdGV4dC1hbGlnbjogY2VudGVyOyIgeG1sbnM9Imh0dHA6Ly93d3cudzMub3JnLzE5OTkveGh0bWwiPjxzcGFuIGNsYXNzPSJub2RlTGFiZWwiPjxwPkRlY29kaWZpY2FyIHByZWRpY2Npb25lczwvcD48L3NwYW4+PC9kaXY+PC9mb3JlaWduT2JqZWN0PjwvZz48L2c+PGcgdHJhbnNmb3JtPSJ0cmFuc2xhdGUoNDE3LjkwMjM0Mzc1LCAxMTE1LjEyNSkiIGlkPSJmbG93Y2hhcnQtSTEtNTkiIGNsYXNzPSJub2RlIGRlZmF1bHQiPjxyZWN0IGhlaWdodD0iNzgiIHdpZHRoPSIyNjAiIHk9Ii0zOSIgeD0iLTEzMCIgc3R5bGU9IiIgY2xhc3M9ImJhc2ljIGxhYmVsLWNvbnRhaW5lciI+PC9yZWN0PjxnIHRyYW5zZm9ybT0idHJhbnNsYXRlKC0xMDAsIC0yNCkiIHN0eWxlPSIiIGNsYXNzPSJsYWJlbCI+PHJlY3Q+PC9yZWN0Pjxmb3JlaWduT2JqZWN0IGhlaWdodD0iNDgiIHdpZHRoPSIyMDAiPjxkaXYgc3R5bGU9ImRpc3BsYXk6IHRhYmxlOyB3aGl0ZS1zcGFjZTogYnJlYWstc3BhY2VzOyBsaW5lLWhlaWdodDogMS41OyBtYXgtd2lkdGg6IDIwMHB4OyB0ZXh0LWFsaWduOiBjZW50ZXI7IHdpZHRoOiAyMDBweDsiIHhtbG5zPSJodHRwOi8vd3d3LnczLm9yZy8xOTk5L3hodG1sIj48c3BhbiBjbGFzcz0ibm9kZUxhYmVsIj48cD5SZXRvcm5hciBldGlxdWV0YXMvY29uZmlhbnphPC9wPjwvc3Bhbj48L2Rpdj48L2ZvcmVpZ25PYmplY3Q+PC9nPjwvZz48ZyB0cmFuc2Zvcm09InRyYW5zbGF0ZSg0MTcuOTAyMzQzNzUsIDEyNTYuMTI1KSIgaWQ9ImZsb3djaGFydC1KMS02MSIgY2xhc3M9Im5vZGUgZGVmYXVsdCI+PHJlY3QgaGVpZ2h0PSI1NCIgd2lkdGg9IjgxLjcwMzEyNSIgeT0iLTI3IiB4PSItNDAuODUxNTYyNSIgc3R5bGU9IiIgY2xhc3M9ImJhc2ljIGxhYmVsLWNvbnRhaW5lciI+PC9yZWN0PjxnIHRyYW5zZm9ybT0idHJhbnNsYXRlKC0xMC44NTE1NjI1LCAtMTIpIiBzdHlsZT0iIiBjbGFzcz0ibGFiZWwiPjxyZWN0PjwvcmVjdD48Zm9yZWlnbk9iamVjdCBoZWlnaHQ9IjI0IiB3aWR0aD0iMjEuNzAzMTI1Ij48ZGl2IHN0eWxlPSJkaXNwbGF5OiB0YWJsZS1jZWxsOyB3aGl0ZS1zcGFjZTogbm93cmFwOyBsaW5lLWhlaWdodDogMS41OyBtYXgtd2lkdGg6IDIwMHB4OyB0ZXh0LWFsaWduOiBjZW50ZXI7IiB4bWxucz0iaHR0cDovL3d3dy53My5vcmcvMTk5OS94aHRtbCI+PHNwYW4gY2xhc3M9Im5vZGVMYWJlbCI+PHA+RmluPC9wPjwvc3Bhbj48L2Rpdj48L2ZvcmVpZ25PYmplY3Q+PC9nPjwvZz48L2c+PC9nPjxnIHRyYW5zZm9ybT0idHJhbnNsYXRlKDE5NDMuMTExMzI4MTI1LCAxMDkuNjAxNTYyNSkiIGNsYXNzPSJyb290Ij48ZyBjbGFzcz0iY2x1c3RlcnMiPjxnIGRhdGEtbG9vaz0iY2xhc3NpYyIgaWQ9IkNhbWFyYSIgY2xhc3M9ImNsdXN0ZXIiPjxyZWN0IGhlaWdodD0iMTU3OC40NTMxMjUiIHdpZHRoPSI3ODIuNTQ2ODc1IiB5PSI4IiB4PSI4IiBzdHlsZT0iIj48L3JlY3Q+PGcgdHJhbnNmb3JtPSJ0cmFuc2xhdGUoMzcxLjgzMjAzMTI1LCA4KSIgY2xhc3M9ImNsdXN0ZXItbGFiZWwiPjxnPjxyZWN0IHN0eWxlPSJzdHJva2U6IG5vbmUiIGNsYXNzPSJiYWNrZ3JvdW5kIj48L3JlY3Q+PHRleHQgc3R5bGU9IiIgeT0iLTEwLjEiPjx0c3BhbiBkeT0iMS4xZW0iIHk9Ii0wLjFlbSIgeD0iMCIgY2xhc3M9InRleHQtb3V0ZXItdHNwYW4iPjx0c3BhbiBmb250LXdlaWdodD0ibm9ybWFsIiBjbGFzcz0idGV4dC1pbm5lci10c3BhbiIgZm9udC1zdHlsZT0ibm9ybWFsIj5DYW1hcmE8L3RzcGFuPjwvdHNwYW4+PC90ZXh0PjwvZz48L2c+PC9nPjwvZz48ZyBjbGFzcz0iZWRnZVBhdGhzIj48cGF0aCBtYXJrZXItZW5kPSJ1cmwoI2dlTWVybWFpZE91dHB1dC0xNzU1NTczNTc3NzYzX2Zsb3djaGFydC12Mi1wb2ludEVuZCkiIHN0eWxlPSIiIGNsYXNzPSJlZGdlLXRoaWNrbmVzcy1ub3JtYWwgZWRnZS1wYXR0ZXJuLXNvbGlkIGVkZ2UtdGhpY2tuZXNzLW5vcm1hbCBlZGdlLXBhdHRlcm4tc29saWQgZmxvd2NoYXJ0LWxpbmsiIGlkPSJMX0FfQl8wIiBkPSJNMjkwLjE5NSw5OS41TDI5MC4xOTUsMTA1Ljc1QzI5MC4xOTUsMTEyLDI5MC4xOTUsMTI0LjUsMjkwLjE5NSwxMzYuMzMzQzI5MC4xOTUsMTQ4LjE2NywyOTAuMTk1LDE1OS4zMzMsMjkwLjE5NSwxNjQuOTE3TDI5MC4xOTUsMTcwLjUiPjwvcGF0aD48cGF0aCBtYXJrZXItZW5kPSJ1cmwoI2dlTWVybWFpZE91dHB1dC0xNzU1NTczNTc3NzYzX2Zsb3djaGFydC12Mi1wb2ludEVuZCkiIHN0eWxlPSIiIGNsYXNzPSJlZGdlLXRoaWNrbmVzcy1ub3JtYWwgZWRnZS1wYXR0ZXJuLXNvbGlkIGVkZ2UtdGhpY2tuZXNzLW5vcm1hbCBlZGdlLXBhdHRlcm4tc29saWQgZmxvd2NoYXJ0LWxpbmsiIGlkPSJMX0JfQ18xIiBkPSJNMjkwLjE5NSwyMjguNUwyOTAuMTk1LDIzNC43NUMyOTAuMTk1LDI0MSwyOTAuMTk1LDI1My41LDI5MC4yNywyNjUuNDE3QzI5MC4zNDQsMjc3LjMzMywyOTAuNDk0LDI4OC42NjcsMjkwLjU2OCwyOTQuMzM0TDI5MC42NDMsMzAwIj48L3BhdGg+PHBhdGggbWFya2VyLWVuZD0idXJsKCNnZU1lcm1haWRPdXRwdXQtMTc1NTU3MzU3Nzc2M19mbG93Y2hhcnQtdjItcG9pbnRFbmQpIiBzdHlsZT0iIiBjbGFzcz0iZWRnZS10aGlja25lc3Mtbm9ybWFsIGVkZ2UtcGF0dGVybi1zb2xpZCBlZGdlLXRoaWNrbmVzcy1ub3JtYWwgZWRnZS1wYXR0ZXJuLXNvbGlkIGZsb3djaGFydC1saW5rIiBpZD0iTF9DX0RfMiIgZD0iTTI1MS43OTQsNDA1LjcwOEwyMzMuNTYzLDQyMC4yNzVDMjE1LjMzMiw0MzQuODQyLDE3OC44NjksNDYzLjk3NiwxNjAuNjM4LDQ4Ni4wNDNDMTQyLjQwNiw1MDguMTA5LDE0Mi40MDYsNTIzLjEwOSwxNDIuNDA2LDUzMC42MDlMMTQyLjQwNiw1MzguMTA5Ij48L3BhdGg+PHBhdGggbWFya2VyLWVuZD0idXJsKCNnZU1lcm1haWRPdXRwdXQtMTc1NTU3MzU3Nzc2M19mbG93Y2hhcnQtdjItcG9pbnRFbmQpIiBzdHlsZT0iIiBjbGFzcz0iZWRnZS10aGlja25lc3Mtbm9ybWFsIGVkZ2UtcGF0dGVybi1zb2xpZCBlZGdlLXRoaWNrbmVzcy1ub3JtYWwgZWRnZS1wYXR0ZXJuLXNvbGlkIGZsb3djaGFydC1saW5rIiBpZD0iTF9DX0VfMyIgZD0iTTMyNi4zMDgsNDA4Ljk5N0wzNDAuNyw0MjMuMDE2QzM1NS4wOTMsNDM3LjAzNCwzODMuODc5LDQ2NS4wNzIsMzk4LjI3MSw0ODYuNTkxQzQxMi42NjQsNTA4LjEwOSw0MTIuNjY0LDUyMy4xMDksNDEyLjY2NCw1MzAuNjA5TDQxMi42NjQsNTM4LjEwOSI+PC9wYXRoPjxwYXRoIG1hcmtlci1lbmQ9InVybCgjZ2VNZXJtYWlkT3V0cHV0LTE3NTU1NzM1Nzc3NjNfZmxvd2NoYXJ0LXYyLXBvaW50RW5kKSIgc3R5bGU9IiIgY2xhc3M9ImVkZ2UtdGhpY2tuZXNzLW5vcm1hbCBlZGdlLXBhdHRlcm4tc29saWQgZWRnZS10aGlja25lc3Mtbm9ybWFsIGVkZ2UtcGF0dGVybi1zb2xpZCBmbG93Y2hhcnQtbGluayIgaWQ9IkxfRV9GXzQiIGQ9Ik00MTIuNjY0LDU5Ni4xMDlMNDEyLjY2NCw2MDIuMzU5QzQxMi42NjQsNjA4LjYwOSw0MTIuNjY0LDYyMS4xMDksNDEyLjczOSw2MzMuMDI2QzQxMi44MTMsNjQ0Ljk0Myw0MTIuOTYyLDY1Ni4yNzYsNDEzLjAzNyw2NjEuOTQzTDQxMy4xMTEsNjY3LjYxIj48L3BhdGg+PHBhdGggbWFya2VyLWVuZD0idXJsKCNnZU1lcm1haWRPdXRwdXQtMTc1NTU3MzU3Nzc2M19mbG93Y2hhcnQtdjItcG9pbnRFbmQpIiBzdHlsZT0iIiBjbGFzcz0iZWRnZS10aGlja25lc3Mtbm9ybWFsIGVkZ2UtcGF0dGVybi1zb2xpZCBlZGdlLXRoaWNrbmVzcy1ub3JtYWwgZWRnZS1wYXR0ZXJuLXNvbGlkIGZsb3djaGFydC1saW5rIiBpZD0iTF9GX0dfNSIgZD0iTTM2OC4yNjQsODEzLjkyOEwzNTMuNzU0LDgyOS40OTVDMzM5LjI0NSw4NDUuMDYxLDMxMC4yMjYsODc2LjE5NSwyOTUuNzE3LDg5OS4yNjFDMjgxLjIwNyw5MjIuMzI4LDI4MS4yMDcsOTM3LjMyOCwyODEuMjA3LDk0NC44MjhMMjgxLjIwNyw5NTIuMzI4Ij48L3BhdGg+PHBhdGggbWFya2VyLWVuZD0idXJsKCNnZU1lcm1haWRPdXRwdXQtMTc1NTU3MzU3Nzc2M19mbG93Y2hhcnQtdjItcG9pbnRFbmQpIiBzdHlsZT0iIiBjbGFzcz0iZWRnZS10aGlja25lc3Mtbm9ybWFsIGVkZ2UtcGF0dGVybi1zb2xpZCBlZGdlLXRoaWNrbmVzcy1ub3JtYWwgZWRnZS1wYXR0ZXJuLXNvbGlkIGZsb3djaGFydC1saW5rIiBpZD0iTF9GX0hfNiIgZD0iTTQ1OC4wNjQsODEzLjkyOEw0NzIuNDA3LDgyOS40OTVDNDg2Ljc1LDg0NS4wNjEsNTE1LjQzNSw4NzYuMTk1LDUyOS43NzgsOTAxLjI2MUM1NDQuMTIxLDkyNi4zMjgsNTQ0LjEyMSw5NDUuMzI4LDU0NC4xMjEsOTU0LjgyOEw1NDQuMTIxLDk2NC4zMjgiPjwvcGF0aD48cGF0aCBtYXJrZXItZW5kPSJ1cmwoI2dlTWVybWFpZE91dHB1dC0xNzU1NTczNTc3NzYzX2Zsb3djaGFydC12Mi1wb2ludEVuZCkiIHN0eWxlPSIiIGNsYXNzPSJlZGdlLXRoaWNrbmVzcy1ub3JtYWwgZWRnZS1wYXR0ZXJuLXNvbGlkIGVkZ2UtdGhpY2tuZXNzLW5vcm1hbCBlZGdlLXBhdHRlcm4tc29saWQgZmxvd2NoYXJ0LWxpbmsiIGlkPSJMX0hfSV83IiBkPSJNNTQ0LjEyMSwxMDIyLjMyOEw1NDQuMTIxLDEwMzAuNTc4QzU0NC4xMjEsMTAzOC44MjgsNTQ0LjEyMSwxMDU1LjMyOCw1NDQuMTk2LDEwNjkuMjQ1QzU0NC4yNywxMDgzLjE2Miw1NDQuNDE5LDEwOTQuNDk1LDU0NC40OTQsMTEwMC4xNjJMNTQ0LjU2OCwxMTA1LjgyOCI+PC9wYXRoPjxwYXRoIG1hcmtlci1lbmQ9InVybCgjZ2VNZXJtYWlkT3V0cHV0LTE3NTU1NzM1Nzc3NjNfZmxvd2NoYXJ0LXYyLXBvaW50RW5kKSIgc3R5bGU9IiIgY2xhc3M9ImVkZ2UtdGhpY2tuZXNzLW5vcm1hbCBlZGdlLXBhdHRlcm4tc29saWQgZWRnZS10aGlja25lc3Mtbm9ybWFsIGVkZ2UtcGF0dGVybi1zb2xpZCBmbG93Y2hhcnQtbGluayIgaWQ9IkxfSV9KXzgiIGQ9Ik01MDIuNDg4LDEyMjYuMzJMNDg1LjE5MiwxMjQxLjQyNUM0NjcuODk1LDEyNTYuNTMxLDQzMy4zMDMsMTI4Ni43NDIsNDE2LjAwNywxMzA5LjM0OEMzOTguNzExLDEzMzEuOTUzLDM5OC43MTEsMTM0Ni45NTMsMzk4LjcxMSwxMzU0LjQ1M0wzOTguNzExLDEzNjEuOTUzIj48L3BhdGg+PHBhdGggbWFya2VyLWVuZD0idXJsKCNnZU1lcm1haWRPdXRwdXQtMTc1NTU3MzU3Nzc2M19mbG93Y2hhcnQtdjItcG9pbnRFbmQpIiBzdHlsZT0iIiBjbGFzcz0iZWRnZS10aGlja25lc3Mtbm9ybWFsIGVkZ2UtcGF0dGVybi1zb2xpZCBlZGdlLXRoaWNrbmVzcy1ub3JtYWwgZWRnZS1wYXR0ZXJuLXNvbGlkIGZsb3djaGFydC1saW5rIiBpZD0iTF9JX0tfOSIgZD0iTTU4Mi42NzksMTIzMC4zOTZMNTk1Ljk4LDEyNDQuODIyQzYwOS4yODIsMTI1OS4yNDgsNjM1Ljg4NSwxMjg4LjEwMSw2NDkuMTg3LDEzMTAuMDI3QzY2Mi40ODgsMTMzMS45NTMsNjYyLjQ4OCwxMzQ2Ljk1Myw2NjIuNDg4LDEzNTQuNDUzTDY2Mi40ODgsMTM2MS45NTMiPjwvcGF0aD48cGF0aCBtYXJrZXItZW5kPSJ1cmwoI2dlTWVybWFpZE91dHB1dC0xNzU1NTczNTc3NzYzX2Zsb3djaGFydC12Mi1wb2ludEVuZCkiIHN0eWxlPSIiIGNsYXNzPSJlZGdlLXRoaWNrbmVzcy1ub3JtYWwgZWRnZS1wYXR0ZXJuLXNvbGlkIGVkZ2UtdGhpY2tuZXNzLW5vcm1hbCBlZGdlLXBhdHRlcm4tc29saWQgZmxvd2NoYXJ0LWxpbmsiIGlkPSJMX0tfTF8xMCIgZD0iTTY2Mi40ODgsMTQxOS45NTNMNjYyLjQ4OCwxNDI2LjIwM0M2NjIuNDg4LDE0MzIuNDUzLDY2Mi40ODgsMTQ0NC45NTMsNjYyLjQ4OCwxNDU2Ljc4NkM2NjIuNDg4LDE0NjguNjIsNjYyLjQ4OCwxNDc5Ljc4Niw2NjIuNDg4LDE0ODUuMzdMNjYyLjQ4OCwxNDkwLjk1MyI+PC9wYXRoPjwvZz48ZyBjbGFzcz0iZWRnZUxhYmVscyI+PGc+PHJlY3Qgc3R5bGU9InN0cm9rZTogbm9uZSIgY2xhc3M9ImJhY2tncm91bmQiPjwvcmVjdD48L2c+PGc+PHJlY3Qgc3R5bGU9InN0cm9rZTogbm9uZSIgY2xhc3M9ImJhY2tncm91bmQiPjwvcmVjdD48L2c+PGc+PHJlY3Qgc3R5bGU9InN0cm9rZTogbm9uZSIgY2xhc3M9ImJhY2tncm91bmQiPjwvcmVjdD48L2c+PGc+PHJlY3Qgc3R5bGU9InN0cm9rZTogbm9uZSIgY2xhc3M9ImJhY2tncm91bmQiPjwvcmVjdD48L2c+PGc+PHJlY3Qgc3R5bGU9InN0cm9rZTogbm9uZSIgY2xhc3M9ImJhY2tncm91bmQiPjwvcmVjdD48L2c+PGcgY2xhc3M9ImVkZ2VMYWJlbCI+PGcgdHJhbnNmb3JtPSJ0cmFuc2xhdGUoMCwgMCkiIGNsYXNzPSJsYWJlbCI+PHRleHQgeT0iLTEwLjEiPjx0c3BhbiBkeT0iMS4xZW0iIHk9Ii0wLjFlbSIgeD0iMCIgY2xhc3M9InRleHQtb3V0ZXItdHNwYW4iPjwvdHNwYW4+PC90ZXh0PjwvZz48L2c+PGcgY2xhc3M9ImVkZ2VMYWJlbCI+PGcgdHJhbnNmb3JtPSJ0cmFuc2xhdGUoMCwgMCkiIGNsYXNzPSJsYWJlbCI+PHRleHQgeT0iLTEwLjEiPjx0c3BhbiBkeT0iMS4xZW0iIHk9Ii0wLjFlbSIgeD0iMCIgY2xhc3M9InRleHQtb3V0ZXItdHNwYW4iPjwvdHNwYW4+PC90ZXh0PjwvZz48L2c+PGcgdHJhbnNmb3JtPSJ0cmFuc2xhdGUoMTQyLjQwNjI1LCA0OTMuMTA5Mzc1KSIgY2xhc3M9ImVkZ2VMYWJlbCI+PGcgdHJhbnNmb3JtPSJ0cmFuc2xhdGUoLTExLjYwNTQ2ODc1LCAtMTEuNSkiIGNsYXNzPSJsYWJlbCI+PGc+PHJlY3QgaGVpZ2h0PSIyMyIgd2lkdGg9IjIzLjIxMDkzNzUiIHk9Ii0xIiB4PSItMiIgc3R5bGU9IiIgY2xhc3M9ImJhY2tncm91bmQiPjwvcmVjdD48dGV4dCBzdHlsZT0iIiB5PSItMTAuMSI+PHRzcGFuIGR5PSIxLjFlbSIgeT0iLTAuMWVtIiB4PSIwIiBjbGFzcz0idGV4dC1vdXRlci10c3BhbiI+PHRzcGFuIGZvbnQtd2VpZ2h0PSJub3JtYWwiIGNsYXNzPSJ0ZXh0LWlubmVyLXRzcGFuIiBmb250LXN0eWxlPSJub3JtYWwiPk5vPC90c3Bhbj48L3RzcGFuPjwvdGV4dD48L2c+PC9nPjwvZz48ZyB0cmFuc2Zvcm09InRyYW5zbGF0ZSg0MTIuNjY0MDYyNSwgNDkzLjEwOTM3NSkiIGNsYXNzPSJlZGdlTGFiZWwiPjxnIHRyYW5zZm9ybT0idHJhbnNsYXRlKC04Ljg0NzY1NjI1LCAtMTEuNSkiIGNsYXNzPSJsYWJlbCI+PGc+PHJlY3QgaGVpZ2h0PSIyMyIgd2lkdGg9IjE3LjY5NTMxMjUiIHk9Ii0xIiB4PSItMiIgc3R5bGU9IiIgY2xhc3M9ImJhY2tncm91bmQiPjwvcmVjdD48dGV4dCBzdHlsZT0iIiB5PSItMTAuMSI+PHRzcGFuIGR5PSIxLjFlbSIgeT0iLTAuMWVtIiB4PSIwIiBjbGFzcz0idGV4dC1vdXRlci10c3BhbiI+PHRzcGFuIGZvbnQtd2VpZ2h0PSJub3JtYWwiIGNsYXNzPSJ0ZXh0LWlubmVyLXRzcGFuIiBmb250LXN0eWxlPSJub3JtYWwiPlPDrTwvdHNwYW4+PC90c3Bhbj48L3RleHQ+PC9nPjwvZz48L2c+PGcgY2xhc3M9ImVkZ2VMYWJlbCI+PGcgdHJhbnNmb3JtPSJ0cmFuc2xhdGUoMCwgMCkiIGNsYXNzPSJsYWJlbCI+PHRleHQgeT0iLTEwLjEiPjx0c3BhbiBkeT0iMS4xZW0iIHk9Ii0wLjFlbSIgeD0iMCIgY2xhc3M9InRleHQtb3V0ZXItdHNwYW4iPjwvdHNwYW4+PC90ZXh0PjwvZz48L2c+PGcgdHJhbnNmb3JtPSJ0cmFuc2xhdGUoMjgxLjIwNzAzMTI1LCA5MDcuMzI4MTI1KSIgY2xhc3M9ImVkZ2VMYWJlbCI+PGcgdHJhbnNmb3JtPSJ0cmFuc2xhdGUoLTExLjYwNTQ2ODc1LCAtMTEuNSkiIGNsYXNzPSJsYWJlbCI+PGc+PHJlY3QgaGVpZ2h0PSIyMyIgd2lkdGg9IjIzLjIxMDkzNzUiIHk9Ii0xIiB4PSItMiIgc3R5bGU9IiIgY2xhc3M9ImJhY2tncm91bmQiPjwvcmVjdD48dGV4dCBzdHlsZT0iIiB5PSItMTAuMSI+PHRzcGFuIGR5PSIxLjFlbSIgeT0iLTAuMWVtIiB4PSIwIiBjbGFzcz0idGV4dC1vdXRlci10c3BhbiI+PHRzcGFuIGZvbnQtd2VpZ2h0PSJub3JtYWwiIGNsYXNzPSJ0ZXh0LWlubmVyLXRzcGFuIiBmb250LXN0eWxlPSJub3JtYWwiPk5vPC90c3Bhbj48L3RzcGFuPjwvdGV4dD48L2c+PC9nPjwvZz48ZyB0cmFuc2Zvcm09InRyYW5zbGF0ZSg1NDQuMTIxMDkzNzUsIDkwNy4zMjgxMjUpIiBjbGFzcz0iZWRnZUxhYmVsIj48ZyB0cmFuc2Zvcm09InRyYW5zbGF0ZSgtOC44NDc2NTYyNSwgLTExLjUpIiBjbGFzcz0ibGFiZWwiPjxnPjxyZWN0IGhlaWdodD0iMjMiIHdpZHRoPSIxNy42OTUzMTI1IiB5PSItMSIgeD0iLTIiIHN0eWxlPSIiIGNsYXNzPSJiYWNrZ3JvdW5kIj48L3JlY3Q+PHRleHQgc3R5bGU9IiIgeT0iLTEwLjEiPjx0c3BhbiBkeT0iMS4xZW0iIHk9Ii0wLjFlbSIgeD0iMCIgY2xhc3M9InRleHQtb3V0ZXItdHNwYW4iPjx0c3BhbiBmb250LXdlaWdodD0ibm9ybWFsIiBjbGFzcz0idGV4dC1pbm5lci10c3BhbiIgZm9udC1zdHlsZT0ibm9ybWFsIj5Tw608L3RzcGFuPjwvdHNwYW4+PC90ZXh0PjwvZz48L2c+PC9nPjxnIGNsYXNzPSJlZGdlTGFiZWwiPjxnIHRyYW5zZm9ybT0idHJhbnNsYXRlKDAsIDApIiBjbGFzcz0ibGFiZWwiPjx0ZXh0IHk9Ii0xMC4xIj48dHNwYW4gZHk9IjEuMWVtIiB5PSItMC4xZW0iIHg9IjAiIGNsYXNzPSJ0ZXh0LW91dGVyLXRzcGFuIj48L3RzcGFuPjwvdGV4dD48L2c+PC9nPjxnIHRyYW5zZm9ybT0idHJhbnNsYXRlKDM5OC43MTA5Mzc1LCAxMzE2Ljk1MzEyNSkiIGNsYXNzPSJlZGdlTGFiZWwiPjxnIHRyYW5zZm9ybT0idHJhbnNsYXRlKC0xMS42MDU0Njg3NSwgLTExLjUpIiBjbGFzcz0ibGFiZWwiPjxnPjxyZWN0IGhlaWdodD0iMjMiIHdpZHRoPSIyMy4yMTA5Mzc1IiB5PSItMSIgeD0iLTIiIHN0eWxlPSIiIGNsYXNzPSJiYWNrZ3JvdW5kIj48L3JlY3Q+PHRleHQgc3R5bGU9IiIgeT0iLTEwLjEiPjx0c3BhbiBkeT0iMS4xZW0iIHk9Ii0wLjFlbSIgeD0iMCIgY2xhc3M9InRleHQtb3V0ZXItdHNwYW4iPjx0c3BhbiBmb250LXdlaWdodD0ibm9ybWFsIiBjbGFzcz0idGV4dC1pbm5lci10c3BhbiIgZm9udC1zdHlsZT0ibm9ybWFsIj5ObzwvdHNwYW4+PC90c3Bhbj48L3RleHQ+PC9nPjwvZz48L2c+PGcgdHJhbnNmb3JtPSJ0cmFuc2xhdGUoNjYyLjQ4ODI4MTI1LCAxMzE2Ljk1MzEyNSkiIGNsYXNzPSJlZGdlTGFiZWwiPjxnIHRyYW5zZm9ybT0idHJhbnNsYXRlKC04Ljg0NzY1NjI1LCAtMTEuNSkiIGNsYXNzPSJsYWJlbCI+PGc+PHJlY3QgaGVpZ2h0PSIyMyIgd2lkdGg9IjE3LjY5NTMxMjUiIHk9Ii0xIiB4PSItMiIgc3R5bGU9IiIgY2xhc3M9ImJhY2tncm91bmQiPjwvcmVjdD48dGV4dCBzdHlsZT0iIiB5PSItMTAuMSI+PHRzcGFuIGR5PSIxLjFlbSIgeT0iLTAuMWVtIiB4PSIwIiBjbGFzcz0idGV4dC1vdXRlci10c3BhbiI+PHRzcGFuIGZvbnQtd2VpZ2h0PSJub3JtYWwiIGNsYXNzPSJ0ZXh0LWlubmVyLXRzcGFuIiBmb250LXN0eWxlPSJub3JtYWwiPlPDrTwvdHNwYW4+PC90c3Bhbj48L3RleHQ+PC9nPjwvZz48L2c+PGcgY2xhc3M9ImVkZ2VMYWJlbCI+PGcgdHJhbnNmb3JtPSJ0cmFuc2xhdGUoMCwgMCkiIGNsYXNzPSJsYWJlbCI+PHRleHQgeT0iLTEwLjEiPjx0c3BhbiBkeT0iMS4xZW0iIHk9Ii0wLjFlbSIgeD0iMCIgY2xhc3M9InRleHQtb3V0ZXItdHNwYW4iPjwvdHNwYW4+PC90ZXh0PjwvZz48L2c+PC9nPjxnIGNsYXNzPSJub2RlcyI+PGcgdHJhbnNmb3JtPSJ0cmFuc2xhdGUoMjkwLjE5NTMxMjUsIDcyLjUpIiBpZD0iZmxvd2NoYXJ0LUEtMjIiIGNsYXNzPSJub2RlIGRlZmF1bHQiPjxyZWN0IGhlaWdodD0iNTQiIHdpZHRoPSI5OC44MjgxMjUiIHk9Ii0yNyIgeD0iLTQ5LjQxNDA2MjUiIHN0eWxlPSIiIGNsYXNzPSJiYXNpYyBsYWJlbC1jb250YWluZXIiPjwvcmVjdD48ZyB0cmFuc2Zvcm09InRyYW5zbGF0ZSgtMTkuNDE0MDYyNSwgLTEyKSIgc3R5bGU9IiIgY2xhc3M9ImxhYmVsIj48cmVjdD48L3JlY3Q+PGZvcmVpZ25PYmplY3QgaGVpZ2h0PSIyNCIgd2lkdGg9IjM4LjgyODEyNSI+PGRpdiBzdHlsZT0iZGlzcGxheTogdGFibGUtY2VsbDsgd2hpdGUtc3BhY2U6IG5vd3JhcDsgbGluZS1oZWlnaHQ6IDEuNTsgbWF4LXdpZHRoOiAyMDBweDsgdGV4dC1hbGlnbjogY2VudGVyOyIgeG1sbnM9Imh0dHA6Ly93d3cudzMub3JnLzE5OTkveGh0bWwiPjxzcGFuIGNsYXNzPSJub2RlTGFiZWwiPjxwPkluaWNpbzwvcD48L3NwYW4+PC9kaXY+PC9mb3JlaWduT2JqZWN0PjwvZz48L2c+PGcgdHJhbnNmb3JtPSJ0cmFuc2xhdGUoMjkwLjE5NTMxMjUsIDIwMS41KSIgaWQ9ImZsb3djaGFydC1CLTIzIiBjbGFzcz0ibm9kZSBkZWZhdWx0Ij48cmVjdCBoZWlnaHQ9IjU0IiB3aWR0aD0iMjAyLjk1MzEyNSIgeT0iLTI3IiB4PSItMTAxLjQ3NjU2MjUiIHN0eWxlPSIiIGNsYXNzPSJiYXNpYyBsYWJlbC1jb250YWluZXIiPjwvcmVjdD48ZyB0cmFuc2Zvcm09InRyYW5zbGF0ZSgtNzEuNDc2NTYyNSwgLTEyKSIgc3R5bGU9IiIgY2xhc3M9ImxhYmVsIj48cmVjdD48L3JlY3Q+PGZvcmVpZ25PYmplY3QgaGVpZ2h0PSIyNCIgd2lkdGg9IjE0Mi45NTMxMjUiPjxkaXYgc3R5bGU9ImRpc3BsYXk6IHRhYmxlLWNlbGw7IHdoaXRlLXNwYWNlOiBub3dyYXA7IGxpbmUtaGVpZ2h0OiAxLjU7IG1heC13aWR0aDogMjAwcHg7IHRleHQtYWxpZ246IGNlbnRlcjsiIHhtbG5zPSJodHRwOi8vd3d3LnczLm9yZy8xOTk5L3hodG1sIj48c3BhbiBjbGFzcz0ibm9kZUxhYmVsIj48cD5JbmljaWFsaXphciBJUENhbWVyYTwvcD48L3NwYW4+PC9kaXY+PC9mb3JlaWduT2JqZWN0PjwvZz48L2c+PGcgdHJhbnNmb3JtPSJ0cmFuc2xhdGUoMjkwLjE5NTMxMjUsIDM3My44MDQ2ODc1KSIgaWQ9ImZsb3djaGFydC1DLTI1IiBjbGFzcz0ibm9kZSBkZWZhdWx0Ij48cG9seWdvbiB0cmFuc2Zvcm09InRyYW5zbGF0ZSgtNzAuMzA0Njg3NSw3MC4zMDQ2ODc1KSIgY2xhc3M9ImxhYmVsLWNvbnRhaW5lciIgcG9pbnRzPSI3MC4zMDQ2ODc1LDAgMTQwLjYwOTM3NSwtNzAuMzA0Njg3NSA3MC4zMDQ2ODc1LC0xNDAuNjA5Mzc1IDAsLTcwLjMwNDY4NzUiPjwvcG9seWdvbj48ZyB0cmFuc2Zvcm09InRyYW5zbGF0ZSgtNDMuMzA0Njg3NSwgLTEyKSIgc3R5bGU9IiIgY2xhc3M9ImxhYmVsIj48cmVjdD48L3JlY3Q+PGZvcmVpZ25PYmplY3QgaGVpZ2h0PSIyNCIgd2lkdGg9Ijg2LjYwOTM3NSI+PGRpdiBzdHlsZT0iZGlzcGxheTogdGFibGUtY2VsbDsgd2hpdGUtc3BhY2U6IG5vd3JhcDsgbGluZS1oZWlnaHQ6IDEuNTsgbWF4LXdpZHRoOiAyMDBweDsgdGV4dC1hbGlnbjogY2VudGVyOyIgeG1sbnM9Imh0dHA6Ly93d3cudzMub3JnLzE5OTkveGh0bWwiPjxzcGFuIGNsYXNzPSJub2RlTGFiZWwiPjxwPsK/VVJMIHbDoWxpZGE/PC9wPjwvc3Bhbj48L2Rpdj48L2ZvcmVpZ25PYmplY3Q+PC9nPjwvZz48ZyB0cmFuc2Zvcm09InRyYW5zbGF0ZSgxNDIuNDA2MjUsIDU2OS4xMDkzNzUpIiBpZD0iZmxvd2NoYXJ0LUQtMjciIGNsYXNzPSJub2RlIGRlZmF1bHQiPjxyZWN0IGhlaWdodD0iNTQiIHdpZHRoPSIxOTQuNjcxODc1IiB5PSItMjciIHg9Ii05Ny4zMzU5Mzc1IiBzdHlsZT0iIiBjbGFzcz0iYmFzaWMgbGFiZWwtY29udGFpbmVyIj48L3JlY3Q+PGcgdHJhbnNmb3JtPSJ0cmFuc2xhdGUoLTY3LjMzNTkzNzUsIC0xMikiIHN0eWxlPSIiIGNsYXNzPSJsYWJlbCI+PHJlY3Q+PC9yZWN0Pjxmb3JlaWduT2JqZWN0IGhlaWdodD0iMjQiIHdpZHRoPSIxMzQuNjcxODc1Ij48ZGl2IHN0eWxlPSJkaXNwbGF5OiB0YWJsZS1jZWxsOyB3aGl0ZS1zcGFjZTogbm93cmFwOyBsaW5lLWhlaWdodDogMS41OyBtYXgtd2lkdGg6IDIwMHB4OyB0ZXh0LWFsaWduOiBjZW50ZXI7IiB4bWxucz0iaHR0cDovL3d3dy53My5vcmcvMTk5OS94aHRtbCI+PHNwYW4gY2xhc3M9Im5vZGVMYWJlbCI+PHA+RXJyb3I6IFVSTCBpbnbDoWxpZGE8L3A+PC9zcGFuPjwvZGl2PjwvZm9yZWlnbk9iamVjdD48L2c+PC9nPjxnIHRyYW5zZm9ybT0idHJhbnNsYXRlKDQxMi42NjQwNjI1LCA1NjkuMTA5Mzc1KSIgaWQ9ImZsb3djaGFydC1FLTI5IiBjbGFzcz0ibm9kZSBkZWZhdWx0Ij48cmVjdCBoZWlnaHQ9IjU0IiB3aWR0aD0iMTk1LjIwMzEyNSIgeT0iLTI3IiB4PSItOTcuNjAxNTYyNSIgc3R5bGU9IiIgY2xhc3M9ImJhc2ljIGxhYmVsLWNvbnRhaW5lciI+PC9yZWN0PjxnIHRyYW5zZm9ybT0idHJhbnNsYXRlKC02Ny42MDE1NjI1LCAtMTIpIiBzdHlsZT0iIiBjbGFzcz0ibGFiZWwiPjxyZWN0PjwvcmVjdD48Zm9yZWlnbk9iamVjdCBoZWlnaHQ9IjI0IiB3aWR0aD0iMTM1LjIwMzEyNSI+PGRpdiBzdHlsZT0iZGlzcGxheTogdGFibGUtY2VsbDsgd2hpdGUtc3BhY2U6IG5vd3JhcDsgbGluZS1oZWlnaHQ6IDEuNTsgbWF4LXdpZHRoOiAyMDBweDsgdGV4dC1hbGlnbjogY2VudGVyOyIgeG1sbnM9Imh0dHA6Ly93d3cudzMub3JnLzE5OTkveGh0bWwiPjxzcGFuIGNsYXNzPSJub2RlTGFiZWwiPjxwPkNvbmVjdGFyIGEgY8OhbWFyYTwvcD48L3NwYW4+PC9kaXY+PC9mb3JlaWduT2JqZWN0PjwvZz48L2c+PGcgdHJhbnNmb3JtPSJ0cmFuc2xhdGUoNDEyLjY2NDA2MjUsIDc2NC43MTg3NSkiIGlkPSJmbG93Y2hhcnQtRi0zMSIgY2xhc3M9Im5vZGUgZGVmYXVsdCI+PHBvbHlnb24gdHJhbnNmb3JtPSJ0cmFuc2xhdGUoLTkzLjYwOTM3NSw5My42MDkzNzUpIiBjbGFzcz0ibGFiZWwtY29udGFpbmVyIiBwb2ludHM9IjkzLjYwOTM3NSwwIDE4Ny4yMTg3NSwtOTMuNjA5Mzc1IDkzLjYwOTM3NSwtMTg3LjIxODc1IDAsLTkzLjYwOTM3NSI+PC9wb2x5Z29uPjxnIHRyYW5zZm9ybT0idHJhbnNsYXRlKC02Ni42MDkzNzUsIC0xMikiIHN0eWxlPSIiIGNsYXNzPSJsYWJlbCI+PHJlY3Q+PC9yZWN0Pjxmb3JlaWduT2JqZWN0IGhlaWdodD0iMjQiIHdpZHRoPSIxMzMuMjE4NzUiPjxkaXYgc3R5bGU9ImRpc3BsYXk6IHRhYmxlLWNlbGw7IHdoaXRlLXNwYWNlOiBub3dyYXA7IGxpbmUtaGVpZ2h0OiAxLjU7IG1heC13aWR0aDogMjAwcHg7IHRleHQtYWxpZ246IGNlbnRlcjsiIHhtbG5zPSJodHRwOi8vd3d3LnczLm9yZy8xOTk5L3hodG1sIj48c3BhbiBjbGFzcz0ibm9kZUxhYmVsIj48cD7Cv0NvbmV4acOzbiBleGl0b3NhPzwvcD48L3NwYW4+PC9kaXY+PC9mb3JlaWduT2JqZWN0PjwvZz48L2c+PGcgdHJhbnNmb3JtPSJ0cmFuc2xhdGUoMjgxLjIwNzAzMTI1LCA5OTUuMzI4MTI1KSIgaWQ9ImZsb3djaGFydC1HLTMzIiBjbGFzcz0ibm9kZSBkZWZhdWx0Ij48cmVjdCBoZWlnaHQ9Ijc4IiB3aWR0aD0iMjYwIiB5PSItMzkiIHg9Ii0xMzAiIHN0eWxlPSIiIGNsYXNzPSJiYXNpYyBsYWJlbC1jb250YWluZXIiPjwvcmVjdD48ZyB0cmFuc2Zvcm09InRyYW5zbGF0ZSgtMTAwLCAtMjQpIiBzdHlsZT0iIiBjbGFzcz0ibGFiZWwiPjxyZWN0PjwvcmVjdD48Zm9yZWlnbk9iamVjdCBoZWlnaHQ9IjQ4IiB3aWR0aD0iMjAwIj48ZGl2IHN0eWxlPSJkaXNwbGF5OiB0YWJsZTsgd2hpdGUtc3BhY2U6IGJyZWFrLXNwYWNlczsgbGluZS1oZWlnaHQ6IDEuNTsgbWF4LXdpZHRoOiAyMDBweDsgdGV4dC1hbGlnbjogY2VudGVyOyB3aWR0aDogMjAwcHg7IiB4bWxucz0iaHR0cDovL3d3dy53My5vcmcvMTk5OS94aHRtbCI+PHNwYW4gY2xhc3M9Im5vZGVMYWJlbCI+PHA+RXJyb3I6IE5vIHNlIHB1ZWRlIGNvbmVjdGFyPC9wPjwvc3Bhbj48L2Rpdj48L2ZvcmVpZ25PYmplY3Q+PC9nPjwvZz48ZyB0cmFuc2Zvcm09InRyYW5zbGF0ZSg1NDQuMTIxMDkzNzUsIDk5NS4zMjgxMjUpIiBpZD0iZmxvd2NoYXJ0LUgtMzUiIGNsYXNzPSJub2RlIGRlZmF1bHQiPjxyZWN0IGhlaWdodD0iNTQiIHdpZHRoPSIxNjUuODI4MTI1IiB5PSItMjciIHg9Ii04Mi45MTQwNjI1IiBzdHlsZT0iIiBjbGFzcz0iYmFzaWMgbGFiZWwtY29udGFpbmVyIj48L3JlY3Q+PGcgdHJhbnNmb3JtPSJ0cmFuc2xhdGUoLTUyLjkxNDA2MjUsIC0xMikiIHN0eWxlPSIiIGNsYXNzPSJsYWJlbCI+PHJlY3Q+PC9yZWN0Pjxmb3JlaWduT2JqZWN0IGhlaWdodD0iMjQiIHdpZHRoPSIxMDUuODI4MTI1Ij48ZGl2IHN0eWxlPSJkaXNwbGF5OiB0YWJsZS1jZWxsOyB3aGl0ZS1zcGFjZTogbm93cmFwOyBsaW5lLWhlaWdodDogMS41OyBtYXgtd2lkdGg6IDIwMHB4OyB0ZXh0LWFsaWduOiBjZW50ZXI7IiB4bWxucz0iaHR0cDovL3d3dy53My5vcmcvMTk5OS94aHRtbCI+PHNwYW4gY2xhc3M9Im5vZGVMYWJlbCI+PHA+T2J0ZW5lciBmcmFtZTwvcD48L3NwYW4+PC9kaXY+PC9mb3JlaWduT2JqZWN0PjwvZz48L2c+PGcgdHJhbnNmb3JtPSJ0cmFuc2xhdGUoNTQ0LjEyMTA5Mzc1LCAxMTg4LjY0MDYyNSkiIGlkPSJmbG93Y2hhcnQtSS0zNyIgY2xhc3M9Im5vZGUgZGVmYXVsdCI+PHBvbHlnb24gdHJhbnNmb3JtPSJ0cmFuc2xhdGUoLTc5LjMxMjUsNzkuMzEyNSkiIGNsYXNzPSJsYWJlbC1jb250YWluZXIiIHBvaW50cz0iNzkuMzEyNSwwIDE1OC42MjUsLTc5LjMxMjUgNzkuMzEyNSwtMTU4LjYyNSAwLC03OS4zMTI1Ij48L3BvbHlnb24+PGcgdHJhbnNmb3JtPSJ0cmFuc2xhdGUoLTUyLjMxMjUsIC0xMikiIHN0eWxlPSIiIGNsYXNzPSJsYWJlbCI+PHJlY3Q+PC9yZWN0Pjxmb3JlaWduT2JqZWN0IGhlaWdodD0iMjQiIHdpZHRoPSIxMDQuNjI1Ij48ZGl2IHN0eWxlPSJkaXNwbGF5OiB0YWJsZS1jZWxsOyB3aGl0ZS1zcGFjZTogbm93cmFwOyBsaW5lLWhlaWdodDogMS41OyBtYXgtd2lkdGg6IDIwMHB4OyB0ZXh0LWFsaWduOiBjZW50ZXI7IiB4bWxucz0iaHR0cDovL3d3dy53My5vcmcvMTk5OS94aHRtbCI+PHNwYW4gY2xhc3M9Im5vZGVMYWJlbCI+PHA+wr9GcmFtZSB2w6FsaWRvPzwvcD48L3NwYW4+PC9kaXY+PC9mb3JlaWduT2JqZWN0PjwvZz48L2c+PGcgdHJhbnNmb3JtPSJ0cmFuc2xhdGUoMzk4LjcxMDkzNzUsIDEzOTIuOTUzMTI1KSIgaWQ9ImZsb3djaGFydC1KLTM5IiBjbGFzcz0ibm9kZSBkZWZhdWx0Ij48cmVjdCBoZWlnaHQ9IjU0IiB3aWR0aD0iMjA0LjE4NzUiIHk9Ii0yNyIgeD0iLTEwMi4wOTM3NSIgc3R5bGU9IiIgY2xhc3M9ImJhc2ljIGxhYmVsLWNvbnRhaW5lciI+PC9yZWN0PjxnIHRyYW5zZm9ybT0idHJhbnNsYXRlKC03Mi4wOTM3NSwgLTEyKSIgc3R5bGU9IiIgY2xhc3M9ImxhYmVsIj48cmVjdD48L3JlY3Q+PGZvcmVpZ25PYmplY3QgaGVpZ2h0PSIyNCIgd2lkdGg9IjE0NC4xODc1Ij48ZGl2IHN0eWxlPSJkaXNwbGF5OiB0YWJsZS1jZWxsOyB3aGl0ZS1zcGFjZTogbm93cmFwOyBsaW5lLWhlaWdodDogMS41OyBtYXgtd2lkdGg6IDIwMHB4OyB0ZXh0LWFsaWduOiBjZW50ZXI7IiB4bWxucz0iaHR0cDovL3d3dy53My5vcmcvMTk5OS94aHRtbCI+PHNwYW4gY2xhc3M9Im5vZGVMYWJlbCI+PHA+UmVpbnRlbnRhciBjb25leGnDs248L3A+PC9zcGFuPjwvZGl2PjwvZm9yZWlnbk9iamVjdD48L2c+PC9nPjxnIHRyYW5zZm9ybT0idHJhbnNsYXRlKDY2Mi40ODgyODEyNSwgMTM5Mi45NTMxMjUpIiBpZD0iZmxvd2NoYXJ0LUstNDEiIGNsYXNzPSJub2RlIGRlZmF1bHQiPjxyZWN0IGhlaWdodD0iNTQiIHdpZHRoPSIxNjkuMjgxMjUiIHk9Ii0yNyIgeD0iLTg0LjY0MDYyNSIgc3R5bGU9IiIgY2xhc3M9ImJhc2ljIGxhYmVsLWNvbnRhaW5lciI+PC9yZWN0PjxnIHRyYW5zZm9ybT0idHJhbnNsYXRlKC01NC42NDA2MjUsIC0xMikiIHN0eWxlPSIiIGNsYXNzPSJsYWJlbCI+PHJlY3Q+PC9yZWN0Pjxmb3JlaWduT2JqZWN0IGhlaWdodD0iMjQiIHdpZHRoPSIxMDkuMjgxMjUiPjxkaXYgc3R5bGU9ImRpc3BsYXk6IHRhYmxlLWNlbGw7IHdoaXRlLXNwYWNlOiBub3dyYXA7IGxpbmUtaGVpZ2h0OiAxLjU7IG1heC13aWR0aDogMjAwcHg7IHRleHQtYWxpZ246IGNlbnRlcjsiIHhtbG5zPSJodHRwOi8vd3d3LnczLm9yZy8xOTk5L3hodG1sIj48c3BhbiBjbGFzcz0ibm9kZUxhYmVsIj48cD5SZXRvcm5hciBmcmFtZTwvcD48L3NwYW4+PC9kaXY+PC9mb3JlaWduT2JqZWN0PjwvZz48L2c+PGcgdHJhbnNmb3JtPSJ0cmFuc2xhdGUoNjYyLjQ4ODI4MTI1LCAxNTIxLjk1MzEyNSkiIGlkPSJmbG93Y2hhcnQtTC00MyIgY2xhc3M9Im5vZGUgZGVmYXVsdCI+PHJlY3QgaGVpZ2h0PSI1NCIgd2lkdGg9IjgxLjcwMzEyNSIgeT0iLTI3IiB4PSItNDAuODUxNTYyNSIgc3R5bGU9IiIgY2xhc3M9ImJhc2ljIGxhYmVsLWNvbnRhaW5lciI+PC9yZWN0PjxnIHRyYW5zZm9ybT0idHJhbnNsYXRlKC0xMC44NTE1NjI1LCAtMTIpIiBzdHlsZT0iIiBjbGFzcz0ibGFiZWwiPjxyZWN0PjwvcmVjdD48Zm9yZWlnbk9iamVjdCBoZWlnaHQ9IjI0IiB3aWR0aD0iMjEuNzAzMTI1Ij48ZGl2IHN0eWxlPSJkaXNwbGF5OiB0YWJsZS1jZWxsOyB3aGl0ZS1zcGFjZTogbm93cmFwOyBsaW5lLWhlaWdodDogMS41OyBtYXgtd2lkdGg6IDIwMHB4OyB0ZXh0LWFsaWduOiBjZW50ZXI7IiB4bWxucz0iaHR0cDovL3d3dy53My5vcmcvMTk5OS94aHRtbCI+PHNwYW4gY2xhc3M9Im5vZGVMYWJlbCI+PHA+RmluPC9wPjwvc3Bhbj48L2Rpdj48L2ZvcmVpZ25PYmplY3Q+PC9nPjwvZz48L2c+PC9nPjwvZz48L2c+PC9nPjwvc3ZnPg==;" vertex="1" parent="1">
                        <mxGeometry x="-950" y="-600" width="2741.658203125" height="1813.65625" as="geometry"/>
                    </mxCell>
                </UserObject>
            </root>
        </mxGraphModel>
    </diagram>
</mxfile>